STARTFONT 2.1
COMMENT
COMMENT Converted from OpenType font "GenBasR.ttf" by "otf2bdf 3.0".
COMMENT
FONT -FreeType-Gentium Basic-Medium-R-Normal--15-150-72-72-P-70-ISO10646-1
SIZE 15 72 72
FONTBOUNDINGBOX 23 21 -8 -5
STARTPROPERTIES 19
FOUNDRY "FreeType"
FAMILY_NAME "Gentium Basic"
WEIGHT_NAME "Medium"
SLANT "R"
SETWIDTH_NAME "Normal"
ADD_STYLE_NAME ""
PIXEL_SIZE 15
POINT_SIZE 150
RESOLUTION_X 72
RESOLUTION_Y 72
SPACING "P"
AVERAGE_WIDTH 70
CHARSET_REGISTRY "ISO10646"
CHARSET_ENCODING "1"
FONT_ASCENT 13
FONT_DESCENT 4
COPYRIGHT "Copyright (c) SIL International, 2003-2008."
_OTF_FONTFILE "GenBasR.ttf"
_OTF_PSNAME "GentiumBasic"
ENDPROPERTIES
CHARS 704
STARTCHAR 0020
ENCODING 32
SWIDTH 200 0
DWIDTH 3 0
BBX 0 0 0 0
BITMAP
ENDCHAR
STARTCHAR 0021
ENCODING 33
SWIDTH 266 0
DWIDTH 4 0
BBX 2 11 1 0
BITMAP
C0
C0
C0
C0
C0
40
80
80
00
80
80
ENDCHAR
STARTCHAR 0022
ENCODING 34
SWIDTH 400 0
DWIDTH 6 0
BBX 4 5 1 6
BITMAP
D0
90
90
90
90
ENDCHAR
STARTCHAR 0023
ENCODING 35
SWIDTH 466 0
DWIDTH 7 0
BBX 6 8 1 1
BITMAP
2C
28
FC
48
50
F8
50
A0
ENDCHAR
STARTCHAR 0024
ENCODING 36
SWIDTH 466 0
DWIDTH 7 0
BBX 6 11 0 -1
BITMAP
10
3C
54
50
70
18
14
94
D4
78
10
ENDCHAR
STARTCHAR 0025
ENCODING 37
SWIDTH 733 0
DWIDTH 11 0
BBX 9 9 1 0
BITMAP
6100
9200
9400
9800
6B00
1480
2480
4480
C300
ENDCHAR
STARTCHAR 0026
ENCODING 38
SWIDTH 666 0
DWIDTH 10 0
BBX 9 11 1 0
BITMAP
3800
4800
4800
4800
7000
6780
A200
9200
8A00
8600
7B00
ENDCHAR
STARTCHAR 0027
ENCODING 39
SWIDTH 266 0
DWIDTH 4 0
BBX 2 5 1 6
BITMAP
C0
80
80
80
80
ENDCHAR
STARTCHAR 0028
ENCODING 40
SWIDTH 333 0
DWIDTH 5 0
BBX 3 14 1 -2
BITMAP
20
40
40
80
80
80
80
80
80
80
80
40
40
20
ENDCHAR
STARTCHAR 0029
ENCODING 41
SWIDTH 333 0
DWIDTH 5 0
BBX 3 14 1 -2
BITMAP
80
40
40
20
20
20
20
20
20
20
20
40
40
80
ENDCHAR
STARTCHAR 002A
ENCODING 42
SWIDTH 466 0
DWIDTH 7 0
BBX 5 6 1 5
BITMAP
20
A8
70
70
A8
20
ENDCHAR
STARTCHAR 002B
ENCODING 43
SWIDTH 400 0
DWIDTH 6 0
BBX 5 5 1 2
BITMAP
20
20
F8
20
20
ENDCHAR
STARTCHAR 002C
ENCODING 44
SWIDTH 200 0
DWIDTH 3 0
BBX 2 4 1 -2
BITMAP
40
C0
40
80
ENDCHAR
STARTCHAR 002D
ENCODING 45
SWIDTH 333 0
DWIDTH 5 0
BBX 5 1 0 3
BITMAP
F8
ENDCHAR
STARTCHAR 002E
ENCODING 46
SWIDTH 200 0
DWIDTH 3 0
BBX 1 2 1 0
BITMAP
80
80
ENDCHAR
STARTCHAR 002F
ENCODING 47
SWIDTH 466 0
DWIDTH 7 0
BBX 7 14 0 -2
BITMAP
06
04
04
08
08
08
10
10
20
20
20
40
40
C0
ENDCHAR
STARTCHAR 0030
ENCODING 48
SWIDTH 466 0
DWIDTH 7 0
BBX 5 9 1 0
BITMAP
70
90
88
88
88
88
88
50
70
ENDCHAR
STARTCHAR 0031
ENCODING 49
SWIDTH 466 0
DWIDTH 7 0
BBX 5 9 1 0
BITMAP
20
E0
20
20
20
20
20
20
F8
ENDCHAR
STARTCHAR 0032
ENCODING 50
SWIDTH 466 0
DWIDTH 7 0
BBX 5 9 1 0
BITMAP
38
48
88
08
10
20
40
88
F8
ENDCHAR
STARTCHAR 0033
ENCODING 51
SWIDTH 466 0
DWIDTH 7 0
BBX 6 9 0 0
BITMAP
30
48
88
10
78
04
04
84
78
ENDCHAR
STARTCHAR 0034
ENCODING 52
SWIDTH 466 0
DWIDTH 7 0
BBX 6 9 0 0
BITMAP
08
18
28
28
48
48
FC
08
3C
ENDCHAR
STARTCHAR 0035
ENCODING 53
SWIDTH 466 0
DWIDTH 7 0
BBX 5 9 1 0
BITMAP
78
80
80
F0
88
08
08
88
70
ENDCHAR
STARTCHAR 0036
ENCODING 54
SWIDTH 466 0
DWIDTH 7 0
BBX 5 9 1 0
BITMAP
18
60
40
B0
C8
88
88
88
70
ENDCHAR
STARTCHAR 0037
ENCODING 55
SWIDTH 466 0
DWIDTH 7 0
BBX 5 9 1 0
BITMAP
F8
88
08
10
10
20
20
60
40
ENDCHAR
STARTCHAR 0038
ENCODING 56
SWIDTH 466 0
DWIDTH 7 0
BBX 5 9 1 0
BITMAP
70
C8
88
D0
70
88
88
88
70
ENDCHAR
STARTCHAR 0039
ENCODING 57
SWIDTH 466 0
DWIDTH 7 0
BBX 5 9 1 0
BITMAP
70
98
88
88
88
78
10
10
E0
ENDCHAR
STARTCHAR 003A
ENCODING 58
SWIDTH 200 0
DWIDTH 3 0
BBX 1 7 1 0
BITMAP
80
80
00
00
00
80
80
ENDCHAR
STARTCHAR 003B
ENCODING 59
SWIDTH 200 0
DWIDTH 3 0
BBX 2 9 1 -2
BITMAP
80
80
00
00
00
40
C0
40
80
ENDCHAR
STARTCHAR 003C
ENCODING 60
SWIDTH 466 0
DWIDTH 7 0
BBX 6 5 0 2
BITMAP
04
38
40
B0
0C
ENDCHAR
STARTCHAR 003D
ENCODING 61
SWIDTH 466 0
DWIDTH 7 0
BBX 6 3 0 3
BITMAP
7C
80
FC
ENDCHAR
STARTCHAR 003E
ENCODING 62
SWIDTH 466 0
DWIDTH 7 0
BBX 6 5 0 2
BITMAP
C0
38
04
38
C0
ENDCHAR
STARTCHAR 003F
ENCODING 63
SWIDTH 466 0
DWIDTH 7 0
BBX 5 11 1 0
BITMAP
70
88
88
08
10
10
20
20
20
20
20
ENDCHAR
STARTCHAR 0040
ENCODING 64
SWIDTH 866 0
DWIDTH 13 0
BBX 11 13 1 -3
BITMAP
0F00
30C0
4040
8E20
B220
A220
A220
A220
A240
5F80
4000
30C0
1F00
ENDCHAR
STARTCHAR 0041
ENCODING 65
SWIDTH 600 0
DWIDTH 9 0
BBX 9 9 0 0
BITMAP
0800
0800
1400
1400
2400
3E00
2200
4300
E380
ENDCHAR
STARTCHAR 0042
ENCODING 66
SWIDTH 600 0
DWIDTH 9 0
BBX 7 9 1 0
BITMAP
F8
44
44
7C
46
42
42
42
FC
ENDCHAR
STARTCHAR 0043
ENCODING 67
SWIDTH 533 0
DWIDTH 8 0
BBX 7 9 1 0
BITMAP
3C
44
80
80
80
80
80
46
38
ENDCHAR
STARTCHAR 0044
ENCODING 68
SWIDTH 600 0
DWIDTH 9 0
BBX 8 9 0 0
BITMAP
FC
42
41
41
41
41
41
42
FC
ENDCHAR
STARTCHAR 0045
ENCODING 69
SWIDTH 466 0
DWIDTH 7 0
BBX 6 9 1 0
BITMAP
FC
44
40
78
40
40
40
44
FC
ENDCHAR
STARTCHAR 0046
ENCODING 70
SWIDTH 466 0
DWIDTH 7 0
BBX 6 9 1 0
BITMAP
FC
44
40
78
40
40
40
40
E0
ENDCHAR
STARTCHAR 0047
ENCODING 71
SWIDTH 600 0
DWIDTH 9 0
BBX 8 9 1 0
BITMAP
1E
64
80
80
8F
82
82
42
3C
ENDCHAR
STARTCHAR 0048
ENCODING 72
SWIDTH 666 0
DWIDTH 10 0
BBX 9 9 0 0
BITMAP
E380
4100
4100
4100
7F00
4100
4100
4100
E380
ENDCHAR
STARTCHAR 0049
ENCODING 73
SWIDTH 266 0
DWIDTH 4 0
BBX 3 9 1 0
BITMAP
E0
40
40
40
40
40
40
40
E0
ENDCHAR
STARTCHAR 004A
ENCODING 74
SWIDTH 333 0
DWIDTH 5 0
BBX 5 12 -1 -3
BITMAP
38
10
10
10
10
10
10
10
10
10
20
C0
ENDCHAR
STARTCHAR 004B
ENCODING 75
SWIDTH 600 0
DWIDTH 9 0
BBX 8 9 1 0
BITMAP
EF
44
48
50
60
50
48
44
E7
ENDCHAR
STARTCHAR 004C
ENCODING 76
SWIDTH 466 0
DWIDTH 7 0
BBX 6 9 1 0
BITMAP
E0
40
40
40
40
40
40
44
FC
ENDCHAR
STARTCHAR 004D
ENCODING 77
SWIDTH 800 0
DWIDTH 12 0
BBX 12 9 0 0
BITMAP
6060
20C0
50C0
5140
4940
4940
4640
4640
E4F0
ENDCHAR
STARTCHAR 004E
ENCODING 78
SWIDTH 666 0
DWIDTH 10 0
BBX 10 9 0 0
BITMAP
C1C0
6080
5080
5880
4C80
4680
4380
4180
E080
ENDCHAR
STARTCHAR 004F
ENCODING 79
SWIDTH 600 0
DWIDTH 9 0
BBX 7 9 1 0
BITMAP
38
44
82
82
82
82
82
44
38
ENDCHAR
STARTCHAR 0050
ENCODING 80
SWIDTH 533 0
DWIDTH 8 0
BBX 7 9 0 0
BITMAP
FC
42
42
42
5C
60
40
40
E0
ENDCHAR
STARTCHAR 0051
ENCODING 81
SWIDTH 600 0
DWIDTH 9 0
BBX 8 11 1 -2
BITMAP
38
44
82
82
82
82
82
44
38
0D
03
ENDCHAR
STARTCHAR 0052
ENCODING 82
SWIDTH 533 0
DWIDTH 8 0
BBX 8 9 0 0
BITMAP
F8
44
44
44
58
68
48
44
E7
ENDCHAR
STARTCHAR 0053
ENCODING 83
SWIDTH 466 0
DWIDTH 7 0
BBX 5 9 1 0
BITMAP
70
98
80
40
30
08
88
88
F0
ENDCHAR
STARTCHAR 0054
ENCODING 84
SWIDTH 533 0
DWIDTH 8 0
BBX 7 9 1 0
BITMAP
FE
92
10
10
10
10
10
10
38
ENDCHAR
STARTCHAR 0055
ENCODING 85
SWIDTH 666 0
DWIDTH 10 0
BBX 9 9 0 0
BITMAP
E380
4100
4100
4100
4100
4100
4100
6200
3C00
ENDCHAR
STARTCHAR 0056
ENCODING 86
SWIDTH 666 0
DWIDTH 10 0
BBX 9 9 0 0
BITMAP
E380
6100
2100
2200
1200
1200
1C00
0C00
0800
ENDCHAR
STARTCHAR 0057
ENCODING 87
SWIDTH 866 0
DWIDTH 13 0
BBX 12 9 0 0
BITMAP
E270
4220
2620
2520
2920
29C0
38C0
10C0
10C0
ENDCHAR
STARTCHAR 0058
ENCODING 88
SWIDTH 600 0
DWIDTH 9 0
BBX 9 9 0 0
BITMAP
F780
6200
3600
1C00
0800
1400
2200
2300
F380
ENDCHAR
STARTCHAR 0059
ENCODING 89
SWIDTH 600 0
DWIDTH 9 0
BBX 9 9 0 0
BITMAP
E380
6200
3200
1400
1C00
0800
0800
0800
1C00
ENDCHAR
STARTCHAR 005A
ENCODING 90
SWIDTH 533 0
DWIDTH 8 0
BBX 7 9 0 0
BITMAP
7E
44
04
08
10
10
22
42
FE
ENDCHAR
STARTCHAR 005B
ENCODING 91
SWIDTH 333 0
DWIDTH 5 0
BBX 3 15 1 -3
BITMAP
E0
80
80
80
80
80
80
80
80
80
80
80
80
80
E0
ENDCHAR
STARTCHAR 005C
ENCODING 92
SWIDTH 466 0
DWIDTH 7 0
BBX 7 14 0 -2
BITMAP
C0
40
40
20
20
20
10
10
08
08
08
04
04
06
ENDCHAR
STARTCHAR 005D
ENCODING 93
SWIDTH 333 0
DWIDTH 5 0
BBX 3 15 1 -3
BITMAP
E0
20
20
20
20
20
20
20
20
20
20
20
20
20
E0
ENDCHAR
STARTCHAR 005E
ENCODING 94
SWIDTH 466 0
DWIDTH 7 0
BBX 6 7 1 4
BITMAP
20
30
50
50
88
88
8C
ENDCHAR
STARTCHAR 005F
ENCODING 95
SWIDTH 466 0
DWIDTH 7 0
BBX 7 1 0 -2
BITMAP
FE
ENDCHAR
STARTCHAR 0060
ENCODING 96
SWIDTH 333 0
DWIDTH 5 0
BBX 3 3 0 8
BITMAP
C0
40
20
ENDCHAR
STARTCHAR 0061
ENCODING 97
SWIDTH 466 0
DWIDTH 7 0
BBX 6 7 1 0
BITMAP
38
48
88
38
C8
88
FC
ENDCHAR
STARTCHAR 0062
ENCODING 98
SWIDTH 533 0
DWIDTH 8 0
BBX 7 11 0 0
BITMAP
C0
40
40
40
5C
62
42
42
42
44
38
ENDCHAR
STARTCHAR 0063
ENCODING 99
SWIDTH 466 0
DWIDTH 7 0
BBX 5 7 1 0
BITMAP
78
88
80
80
80
C8
70
ENDCHAR
STARTCHAR 0064
ENCODING 100
SWIDTH 533 0
DWIDTH 8 0
BBX 7 11 1 0
BITMAP
0C
04
04
04
3C
C4
84
84
84
CC
76
ENDCHAR
STARTCHAR 0065
ENCODING 101
SWIDTH 466 0
DWIDTH 7 0
BBX 5 7 1 0
BITMAP
70
48
88
F8
80
C8
70
ENDCHAR
STARTCHAR 0066
ENCODING 102
SWIDTH 333 0
DWIDTH 5 0
BBX 5 11 1 0
BITMAP
18
68
40
40
F0
40
40
40
40
40
F0
ENDCHAR
STARTCHAR 0067
ENCODING 103
SWIDTH 466 0
DWIDTH 7 0
BBX 7 11 0 -4
BITMAP
7E
84
84
C4
78
60
78
46
82
86
78
ENDCHAR
STARTCHAR 0068
ENCODING 104
SWIDTH 533 0
DWIDTH 8 0
BBX 8 11 0 0
BITMAP
C0
40
40
40
4E
72
42
42
42
42
E7
ENDCHAR
STARTCHAR 0069
ENCODING 105
SWIDTH 266 0
DWIDTH 4 0
BBX 3 10 1 0
BITMAP
40
40
00
C0
40
40
40
40
40
E0
ENDCHAR
STARTCHAR 006A
ENCODING 106
SWIDTH 266 0
DWIDTH 4 0
BBX 4 14 -1 -4
BITMAP
10
10
00
30
10
10
10
10
10
10
10
10
20
C0
ENDCHAR
STARTCHAR 006B
ENCODING 107
SWIDTH 533 0
DWIDTH 8 0
BBX 7 11 0 0
BITMAP
C0
40
40
40
4E
48
70
70
50
48
E6
ENDCHAR
STARTCHAR 006C
ENCODING 108
SWIDTH 266 0
DWIDTH 4 0
BBX 3 11 1 0
BITMAP
C0
40
40
40
40
40
40
40
40
40
E0
ENDCHAR
STARTCHAR 006D
ENCODING 109
SWIDTH 733 0
DWIDTH 11 0
BBX 11 7 0 0
BITMAP
DDC0
6640
4440
4440
4440
4440
EEE0
ENDCHAR
STARTCHAR 006E
ENCODING 110
SWIDTH 533 0
DWIDTH 8 0
BBX 8 7 0 0
BITMAP
4E
F2
42
42
42
42
E7
ENDCHAR
STARTCHAR 006F
ENCODING 111
SWIDTH 533 0
DWIDTH 8 0
BBX 6 7 1 0
BITMAP
38
CC
84
84
84
C8
70
ENDCHAR
STARTCHAR 0070
ENCODING 112
SWIDTH 533 0
DWIDTH 8 0
BBX 7 11 0 -4
BITMAP
5C
E6
42
42
42
44
78
40
40
40
E0
ENDCHAR
STARTCHAR 0071
ENCODING 113
SWIDTH 533 0
DWIDTH 8 0
BBX 7 11 1 -4
BITMAP
3C
44
84
84
84
CC
74
04
04
04
0E
ENDCHAR
STARTCHAR 0072
ENCODING 114
SWIDTH 400 0
DWIDTH 6 0
BBX 5 7 0 0
BITMAP
D8
68
40
40
40
40
E0
ENDCHAR
STARTCHAR 0073
ENCODING 115
SWIDTH 400 0
DWIDTH 6 0
BBX 4 7 1 0
BITMAP
60
B0
80
60
10
90
E0
ENDCHAR
STARTCHAR 0074
ENCODING 116
SWIDTH 333 0
DWIDTH 5 0
BBX 5 9 0 0
BITMAP
40
40
F8
40
40
40
40
40
78
ENDCHAR
STARTCHAR 0075
ENCODING 117
SWIDTH 533 0
DWIDTH 8 0
BBX 8 7 0 0
BITMAP
C6
42
42
42
42
46
3B
ENDCHAR
STARTCHAR 0076
ENCODING 118
SWIDTH 466 0
DWIDTH 7 0
BBX 7 7 0 0
BITMAP
E6
44
24
28
38
18
10
ENDCHAR
STARTCHAR 0077
ENCODING 119
SWIDTH 733 0
DWIDTH 11 0
BBX 10 7 0 0
BITMAP
E4C0
4480
6E80
2A80
3280
3100
1100
ENDCHAR
STARTCHAR 0078
ENCODING 120
SWIDTH 533 0
DWIDTH 8 0
BBX 7 7 0 0
BITMAP
EE
64
38
18
28
44
EE
ENDCHAR
STARTCHAR 0079
ENCODING 121
SWIDTH 466 0
DWIDTH 7 0
BBX 7 11 0 -4
BITMAP
E6
44
24
24
28
18
10
10
10
20
C0
ENDCHAR
STARTCHAR 007A
ENCODING 122
SWIDTH 466 0
DWIDTH 7 0
BBX 5 7 1 0
BITMAP
F8
90
20
20
40
88
F8
ENDCHAR
STARTCHAR 007B
ENCODING 123
SWIDTH 333 0
DWIDTH 5 0
BBX 3 14 1 -2
BITMAP
20
40
40
40
20
20
40
E0
20
20
40
40
40
20
ENDCHAR
STARTCHAR 007C
ENCODING 124
SWIDTH 200 0
DWIDTH 3 0
BBX 1 15 1 -3
BITMAP
80
80
80
80
80
80
80
80
80
80
80
80
80
80
80
ENDCHAR
STARTCHAR 007D
ENCODING 125
SWIDTH 333 0
DWIDTH 5 0
BBX 3 14 1 -2
BITMAP
80
40
40
40
80
80
C0
60
80
80
40
40
40
80
ENDCHAR
STARTCHAR 007E
ENCODING 126
SWIDTH 466 0
DWIDTH 7 0
BBX 7 3 0 3
BITMAP
32
DC
80
ENDCHAR
STARTCHAR 00A0
ENCODING 160
SWIDTH 200 0
DWIDTH 3 0
BBX 0 0 0 0
BITMAP
ENDCHAR
STARTCHAR 00A1
ENCODING 161
SWIDTH 266 0
DWIDTH 4 0
BBX 2 11 1 -4
BITMAP
80
80
00
80
80
80
C0
C0
C0
C0
C0
ENDCHAR
STARTCHAR 00A2
ENCODING 162
SWIDTH 466 0
DWIDTH 7 0
BBX 5 9 1 0
BITMAP
20
38
E8
A0
A0
A0
E8
70
20
ENDCHAR
STARTCHAR 00A3
ENCODING 163
SWIDTH 466 0
DWIDTH 7 0
BBX 6 9 1 0
BITMAP
38
44
48
40
F0
40
40
44
FC
ENDCHAR
STARTCHAR 00A4
ENCODING 164
SWIDTH 466 0
DWIDTH 7 0
BBX 3 5 2 2
BITMAP
A0
E0
A0
A0
E0
ENDCHAR
STARTCHAR 00A5
ENCODING 165
SWIDTH 466 0
DWIDTH 7 0
BBX 7 9 0 0
BITMAP
CE
64
28
38
10
7C
10
10
38
ENDCHAR
STARTCHAR 00A6
ENCODING 166
SWIDTH 200 0
DWIDTH 3 0
BBX 1 15 1 -3
BITMAP
80
80
80
80
80
80
80
00
80
80
80
80
80
80
80
ENDCHAR
STARTCHAR 00A7
ENCODING 167
SWIDTH 533 0
DWIDTH 8 0
BBX 6 11 1 0
BITMAP
70
90
80
E0
B8
84
44
38
88
88
70
ENDCHAR
STARTCHAR 00A8
ENCODING 168
SWIDTH 400 0
DWIDTH 6 0
BBX 4 2 1 8
BITMAP
90
90
ENDCHAR
STARTCHAR 00A9
ENCODING 169
SWIDTH 733 0
DWIDTH 11 0
BBX 9 9 1 0
BITMAP
3E00
5D00
A680
A080
A080
A080
B680
5D00
3E00
ENDCHAR
STARTCHAR 00AA
ENCODING 170
SWIDTH 266 0
DWIDTH 4 0
BBX 4 5 0 4
BITMAP
60
A0
E0
E0
F0
ENDCHAR
STARTCHAR 00AB
ENCODING 171
SWIDTH 466 0
DWIDTH 7 0
BBX 5 7 1 0
BITMAP
68
48
90
B0
90
48
68
ENDCHAR
STARTCHAR 00AC
ENCODING 172
SWIDTH 466 0
DWIDTH 7 0
BBX 6 4 1 1
BITMAP
FC
04
04
04
ENDCHAR
STARTCHAR 00AD
ENCODING 173
SWIDTH 333 0
DWIDTH 5 0
BBX 5 1 0 3
BITMAP
F8
ENDCHAR
STARTCHAR 00AE
ENCODING 174
SWIDTH 333 0
DWIDTH 5 0
BBX 5 6 0 5
BITMAP
70
88
B8
A8
A8
70
ENDCHAR
STARTCHAR 00AF
ENCODING 175
SWIDTH 466 0
DWIDTH 7 0
BBX 5 1 1 8
BITMAP
F8
ENDCHAR
STARTCHAR 00B0
ENCODING 176
SWIDTH 333 0
DWIDTH 5 0
BBX 3 4 1 5
BITMAP
60
A0
A0
C0
ENDCHAR
STARTCHAR 00B1
ENCODING 177
SWIDTH 400 0
DWIDTH 6 0
BBX 6 7 0 1
BITMAP
10
10
7C
10
10
00
FC
ENDCHAR
STARTCHAR 00B2
ENCODING 178
SWIDTH 333 0
DWIDTH 5 0
BBX 4 6 0 4
BITMAP
30
D0
20
20
50
F0
ENDCHAR
STARTCHAR 00B3
ENCODING 179
SWIDTH 333 0
DWIDTH 5 0
BBX 4 6 0 4
BITMAP
30
50
20
10
90
60
ENDCHAR
STARTCHAR 00B4
ENCODING 180
SWIDTH 333 0
DWIDTH 5 0
BBX 3 3 2 8
BITMAP
60
80
80
ENDCHAR
STARTCHAR 00B5
ENCODING 181
SWIDTH 533 0
DWIDTH 8 0
BBX 8 11 0 -4
BITMAP
C6
42
42
42
42
46
7B
40
40
40
60
ENDCHAR
STARTCHAR 00B6
ENCODING 182
SWIDTH 600 0
DWIDTH 9 0
BBX 8 11 0 -2
BITMAP
7F
8A
8A
CA
7A
0A
0A
0A
0A
0A
1F
ENDCHAR
STARTCHAR 00B7
ENCODING 183
SWIDTH 133 0
DWIDTH 2 0
BBX 1 2 1 4
BITMAP
80
80
ENDCHAR
STARTCHAR 00B8
ENCODING 184
SWIDTH 200 0
DWIDTH 3 0
BBX 2 3 1 -3
BITMAP
80
40
C0
ENDCHAR
STARTCHAR 00B9
ENCODING 185
SWIDTH 333 0
DWIDTH 5 0
BBX 3 5 1 5
BITMAP
C0
40
40
40
E0
ENDCHAR
STARTCHAR 00BA
ENCODING 186
SWIDTH 266 0
DWIDTH 4 0
BBX 3 5 0 4
BITMAP
60
A0
A0
C0
E0
ENDCHAR
STARTCHAR 00BB
ENCODING 187
SWIDTH 466 0
DWIDTH 7 0
BBX 6 7 1 0
BITMAP
A0
50
48
2C
48
50
A0
ENDCHAR
STARTCHAR 00BC
ENCODING 188
SWIDTH 600 0
DWIDTH 9 0
BBX 8 9 1 0
BITMAP
C2
44
44
48
B2
16
2A
4F
C7
ENDCHAR
STARTCHAR 00BD
ENCODING 189
SWIDTH 600 0
DWIDTH 9 0
BBX 7 9 1 0
BITMAP
C2
44
48
48
B6
1A
24
4A
CE
ENDCHAR
STARTCHAR 00BE
ENCODING 190
SWIDTH 600 0
DWIDTH 9 0
BBX 9 9 0 0
BITMAP
3100
5200
3400
1400
E900
0B00
1500
2780
6380
ENDCHAR
STARTCHAR 00BF
ENCODING 191
SWIDTH 466 0
DWIDTH 7 0
BBX 5 11 1 -4
BITMAP
20
20
20
20
20
40
80
80
88
88
70
ENDCHAR
STARTCHAR 00C0
ENCODING 192
SWIDTH 600 0
DWIDTH 9 0
BBX 9 12 0 0
BITMAP
3000
0C00
0000
0800
0800
1400
1400
2400
3E00
2200
4300
E380
ENDCHAR
STARTCHAR 00C1
ENCODING 193
SWIDTH 600 0
DWIDTH 9 0
BBX 9 12 0 0
BITMAP
0600
1800
0000
0800
0800
1400
1400
2400
3E00
2200
4300
E380
ENDCHAR
STARTCHAR 00C2
ENCODING 194
SWIDTH 600 0
DWIDTH 9 0
BBX 9 12 0 0
BITMAP
1C00
2200
0000
0800
0800
1400
1400
2400
3E00
2200
4300
E380
ENDCHAR
STARTCHAR 00C3
ENCODING 195
SWIDTH 600 0
DWIDTH 9 0
BBX 9 12 0 0
BITMAP
3A00
3C00
0000
0800
0800
1400
1400
2400
3E00
2200
4300
E380
ENDCHAR
STARTCHAR 00C4
ENCODING 196
SWIDTH 600 0
DWIDTH 9 0
BBX 9 11 0 0
BITMAP
2400
2400
0800
0800
1400
1400
2400
3E00
2200
4300
E380
ENDCHAR
STARTCHAR 00C5
ENCODING 197
SWIDTH 600 0
DWIDTH 9 0
BBX 9 13 0 0
BITMAP
0C00
1400
1400
0800
0800
0800
1400
1400
2400
3E00
2200
4300
E380
ENDCHAR
STARTCHAR 00C6
ENCODING 198
SWIDTH 800 0
DWIDTH 12 0
BBX 11 9 0 0
BITMAP
1FE0
0A20
1200
1FC0
1200
2200
2200
2220
E7E0
ENDCHAR
STARTCHAR 00C7
ENCODING 199
SWIDTH 533 0
DWIDTH 8 0
BBX 6 12 1 -3
BITMAP
3C
44
80
80
80
80
80
44
78
20
10
30
ENDCHAR
STARTCHAR 00C8
ENCODING 200
SWIDTH 466 0
DWIDTH 7 0
BBX 6 12 1 0
BITMAP
E0
10
00
FC
44
40
78
40
40
40
44
FC
ENDCHAR
STARTCHAR 00C9
ENCODING 201
SWIDTH 466 0
DWIDTH 7 0
BBX 6 12 1 0
BITMAP
18
60
00
FC
44
40
78
40
40
40
44
FC
ENDCHAR
STARTCHAR 00CA
ENCODING 202
SWIDTH 466 0
DWIDTH 7 0
BBX 6 12 1 0
BITMAP
70
88
00
FC
44
40
78
40
40
40
44
FC
ENDCHAR
STARTCHAR 00CB
ENCODING 203
SWIDTH 466 0
DWIDTH 7 0
BBX 6 11 1 0
BITMAP
90
90
7C
44
40
78
40
40
40
44
FC
ENDCHAR
STARTCHAR 00CC
ENCODING 204
SWIDTH 266 0
DWIDTH 4 0
BBX 4 12 0 0
BITMAP
C0
20
00
70
20
20
20
20
20
20
20
70
ENDCHAR
STARTCHAR 00CD
ENCODING 205
SWIDTH 266 0
DWIDTH 4 0
BBX 4 12 1 0
BITMAP
70
80
00
E0
40
40
40
40
40
40
40
E0
ENDCHAR
STARTCHAR 00CE
ENCODING 206
SWIDTH 266 0
DWIDTH 4 0
BBX 4 12 0 0
BITMAP
60
90
00
70
20
20
20
20
20
20
20
70
ENDCHAR
STARTCHAR 00CF
ENCODING 207
SWIDTH 266 0
DWIDTH 4 0
BBX 4 11 0 0
BITMAP
90
90
60
20
20
20
20
20
20
20
70
ENDCHAR
STARTCHAR 00D0
ENCODING 208
SWIDTH 600 0
DWIDTH 9 0
BBX 8 9 0 0
BITMAP
FC
42
41
41
F1
41
41
42
FC
ENDCHAR
STARTCHAR 00D1
ENCODING 209
SWIDTH 666 0
DWIDTH 10 0
BBX 10 12 0 0
BITMAP
1A00
3C00
0000
C1C0
6080
5080
5880
4C80
4680
4380
4180
E080
ENDCHAR
STARTCHAR 00D2
ENCODING 210
SWIDTH 600 0
DWIDTH 9 0
BBX 7 12 1 0
BITMAP
60
18
00
38
44
82
82
82
82
82
44
38
ENDCHAR
STARTCHAR 00D3
ENCODING 211
SWIDTH 600 0
DWIDTH 9 0
BBX 7 12 1 0
BITMAP
0C
30
00
38
44
82
82
82
82
82
44
38
ENDCHAR
STARTCHAR 00D4
ENCODING 212
SWIDTH 600 0
DWIDTH 9 0
BBX 7 12 1 0
BITMAP
38
44
00
38
44
82
82
82
82
82
44
38
ENDCHAR
STARTCHAR 00D5
ENCODING 213
SWIDTH 600 0
DWIDTH 9 0
BBX 7 12 1 0
BITMAP
34
78
00
38
44
82
82
82
82
82
44
38
ENDCHAR
STARTCHAR 00D6
ENCODING 214
SWIDTH 600 0
DWIDTH 9 0
BBX 7 11 1 0
BITMAP
48
48
38
44
82
82
82
82
82
44
38
ENDCHAR
STARTCHAR 00D7
ENCODING 215
SWIDTH 400 0
DWIDTH 6 0
BBX 4 4 1 2
BITMAP
90
60
60
90
ENDCHAR
STARTCHAR 00D8
ENCODING 216
SWIDTH 600 0
DWIDTH 9 0
BBX 7 9 1 0
BITMAP
3A
44
8A
8A
92
A2
C2
44
B8
ENDCHAR
STARTCHAR 00D9
ENCODING 217
SWIDTH 666 0
DWIDTH 10 0
BBX 9 12 0 0
BITMAP
3800
0400
0000
E380
4100
4100
4100
4100
4100
4100
6200
3C00
ENDCHAR
STARTCHAR 00DA
ENCODING 218
SWIDTH 666 0
DWIDTH 10 0
BBX 9 12 0 0
BITMAP
0600
1800
0000
E380
4100
4100
4100
4100
4100
4100
6200
3C00
ENDCHAR
STARTCHAR 00DB
ENCODING 219
SWIDTH 666 0
DWIDTH 10 0
BBX 9 12 0 0
BITMAP
1C00
2200
0000
E380
4100
4100
4100
4100
4100
4100
6200
3C00
ENDCHAR
STARTCHAR 00DC
ENCODING 220
SWIDTH 666 0
DWIDTH 10 0
BBX 9 11 0 0
BITMAP
2200
2400
C380
4100
4100
4100
4100
4100
4100
6200
3C00
ENDCHAR
STARTCHAR 00DD
ENCODING 221
SWIDTH 600 0
DWIDTH 9 0
BBX 9 12 0 0
BITMAP
0600
1800
0000
E380
6200
3200
1400
1C00
0800
0800
0800
1C00
ENDCHAR
STARTCHAR 00DE
ENCODING 222
SWIDTH 533 0
DWIDTH 8 0
BBX 7 9 0 0
BITMAP
E0
7C
46
42
42
42
64
5C
E0
ENDCHAR
STARTCHAR 00DF
ENCODING 223
SWIDTH 533 0
DWIDTH 8 0
BBX 8 11 0 0
BITMAP
1C
22
42
42
44
48
4C
43
41
49
CE
ENDCHAR
STARTCHAR 00E0
ENCODING 224
SWIDTH 466 0
DWIDTH 7 0
BBX 6 11 1 0
BITMAP
C0
60
20
00
38
48
88
38
C8
88
FC
ENDCHAR
STARTCHAR 00E1
ENCODING 225
SWIDTH 466 0
DWIDTH 7 0
BBX 6 11 1 0
BITMAP
18
10
20
00
38
48
88
38
C8
88
FC
ENDCHAR
STARTCHAR 00E2
ENCODING 226
SWIDTH 466 0
DWIDTH 7 0
BBX 6 11 1 0
BITMAP
20
50
88
00
38
48
88
38
C8
88
FC
ENDCHAR
STARTCHAR 00E3
ENCODING 227
SWIDTH 466 0
DWIDTH 7 0
BBX 6 10 1 0
BITMAP
68
B0
00
38
48
88
38
C8
88
FC
ENDCHAR
STARTCHAR 00E4
ENCODING 228
SWIDTH 466 0
DWIDTH 7 0
BBX 6 10 1 0
BITMAP
90
90
00
38
48
88
38
C8
88
FC
ENDCHAR
STARTCHAR 00E5
ENCODING 229
SWIDTH 466 0
DWIDTH 7 0
BBX 6 11 1 0
BITMAP
30
50
50
30
38
48
88
38
C8
88
FC
ENDCHAR
STARTCHAR 00E6
ENCODING 230
SWIDTH 666 0
DWIDTH 10 0
BBX 9 7 1 0
BITMAP
3F00
4C80
8880
3F80
C800
8880
F700
ENDCHAR
STARTCHAR 00E7
ENCODING 231
SWIDTH 466 0
DWIDTH 7 0
BBX 5 10 1 -3
BITMAP
78
88
80
80
80
C8
70
20
10
30
ENDCHAR
STARTCHAR 00E8
ENCODING 232
SWIDTH 466 0
DWIDTH 7 0
BBX 5 11 1 0
BITMAP
40
20
20
10
70
48
88
F8
80
C8
70
ENDCHAR
STARTCHAR 00E9
ENCODING 233
SWIDTH 466 0
DWIDTH 7 0
BBX 5 11 1 0
BITMAP
18
10
20
00
70
48
88
F8
80
C8
70
ENDCHAR
STARTCHAR 00EA
ENCODING 234
SWIDTH 466 0
DWIDTH 7 0
BBX 5 11 1 0
BITMAP
20
50
88
00
70
48
88
F8
80
C8
70
ENDCHAR
STARTCHAR 00EB
ENCODING 235
SWIDTH 466 0
DWIDTH 7 0
BBX 5 10 1 0
BITMAP
90
98
00
70
48
88
F8
80
C8
70
ENDCHAR
STARTCHAR 00EC
ENCODING 236
SWIDTH 266 0
DWIDTH 4 0
BBX 4 11 0 0
BITMAP
80
40
20
00
60
20
20
20
20
20
70
ENDCHAR
STARTCHAR 00ED
ENCODING 237
SWIDTH 266 0
DWIDTH 4 0
BBX 3 11 1 0
BITMAP
20
40
80
00
C0
40
40
40
40
40
E0
ENDCHAR
STARTCHAR 00EE
ENCODING 238
SWIDTH 266 0
DWIDTH 4 0
BBX 4 11 0 0
BITMAP
60
50
90
00
60
20
20
20
20
20
70
ENDCHAR
STARTCHAR 00EF
ENCODING 239
SWIDTH 266 0
DWIDTH 4 0
BBX 4 10 0 0
BITMAP
90
90
00
60
20
20
20
20
20
70
ENDCHAR
STARTCHAR 00F0
ENCODING 240
SWIDTH 466 0
DWIDTH 7 0
BBX 5 11 1 0
BITMAP
C8
30
50
10
78
88
88
88
88
90
70
ENDCHAR
STARTCHAR 00F1
ENCODING 241
SWIDTH 533 0
DWIDTH 8 0
BBX 8 10 0 0
BITMAP
12
6C
00
4E
F2
42
42
42
42
E7
ENDCHAR
STARTCHAR 00F2
ENCODING 242
SWIDTH 533 0
DWIDTH 8 0
BBX 6 11 1 0
BITMAP
40
20
10
00
38
CC
84
84
84
C8
70
ENDCHAR
STARTCHAR 00F3
ENCODING 243
SWIDTH 533 0
DWIDTH 8 0
BBX 6 11 1 0
BITMAP
08
10
20
00
38
CC
84
84
84
C8
70
ENDCHAR
STARTCHAR 00F4
ENCODING 244
SWIDTH 533 0
DWIDTH 8 0
BBX 6 11 1 0
BITMAP
30
50
88
00
38
CC
84
84
84
C8
70
ENDCHAR
STARTCHAR 00F5
ENCODING 245
SWIDTH 533 0
DWIDTH 8 0
BBX 6 10 1 0
BITMAP
68
98
00
38
CC
84
84
84
C8
70
ENDCHAR
STARTCHAR 00F6
ENCODING 246
SWIDTH 533 0
DWIDTH 8 0
BBX 6 10 1 0
BITMAP
88
88
00
38
CC
84
84
84
C8
70
ENDCHAR
STARTCHAR 00F7
ENCODING 247
SWIDTH 400 0
DWIDTH 6 0
BBX 6 4 0 2
BITMAP
10
7C
80
10
ENDCHAR
STARTCHAR 00F8
ENCODING 248
SWIDTH 533 0
DWIDTH 8 0
BBX 6 7 1 0
BITMAP
3C
CC
94
A4
A4
C8
F0
ENDCHAR
STARTCHAR 00F9
ENCODING 249
SWIDTH 533 0
DWIDTH 8 0
BBX 8 11 0 0
BITMAP
20
10
08
00
C6
42
42
42
42
46
3B
ENDCHAR
STARTCHAR 00FA
ENCODING 250
SWIDTH 533 0
DWIDTH 8 0
BBX 8 11 0 0
BITMAP
04
08
10
00
C6
42
42
42
42
46
3B
ENDCHAR
STARTCHAR 00FB
ENCODING 251
SWIDTH 533 0
DWIDTH 8 0
BBX 8 11 0 0
BITMAP
18
18
24
00
C6
42
42
42
42
46
3B
ENDCHAR
STARTCHAR 00FC
ENCODING 252
SWIDTH 533 0
DWIDTH 8 0
BBX 8 10 0 0
BITMAP
24
44
00
C6
42
42
42
42
46
3B
ENDCHAR
STARTCHAR 00FD
ENCODING 253
SWIDTH 466 0
DWIDTH 7 0
BBX 7 15 0 -4
BITMAP
04
08
10
00
E6
44
24
24
28
18
10
10
10
20
C0
ENDCHAR
STARTCHAR 00FE
ENCODING 254
SWIDTH 533 0
DWIDTH 8 0
BBX 7 15 0 -4
BITMAP
C0
40
40
40
4C
72
42
42
42
44
78
40
40
40
E0
ENDCHAR
STARTCHAR 00FF
ENCODING 255
SWIDTH 466 0
DWIDTH 7 0
BBX 7 14 0 -4
BITMAP
44
44
00
E6
44
24
24
28
18
10
10
10
20
C0
ENDCHAR
STARTCHAR 0100
ENCODING 256
SWIDTH 600 0
DWIDTH 9 0
BBX 9 11 0 0
BITMAP
3E00
0000
0800
0800
1400
1400
2400
3E00
2200
4300
E380
ENDCHAR
STARTCHAR 0101
ENCODING 257
SWIDTH 466 0
DWIDTH 7 0
BBX 6 9 1 0
BITMAP
F8
00
38
48
88
38
C8
88
FC
ENDCHAR
STARTCHAR 0102
ENCODING 258
SWIDTH 600 0
DWIDTH 9 0
BBX 9 12 0 0
BITMAP
2600
1800
0000
0800
0800
1400
1400
2400
3E00
2200
4300
E380
ENDCHAR
STARTCHAR 0103
ENCODING 259
SWIDTH 466 0
DWIDTH 7 0
BBX 6 10 1 0
BITMAP
88
70
00
38
48
88
38
C8
88
FC
ENDCHAR
STARTCHAR 0106
ENCODING 262
SWIDTH 533 0
DWIDTH 8 0
BBX 7 12 1 0
BITMAP
0C
30
00
3C
44
80
80
80
80
80
46
38
ENDCHAR
STARTCHAR 0107
ENCODING 263
SWIDTH 466 0
DWIDTH 7 0
BBX 5 11 1 0
BITMAP
18
10
20
00
78
88
80
80
80
C8
70
ENDCHAR
STARTCHAR 0108
ENCODING 264
SWIDTH 533 0
DWIDTH 8 0
BBX 7 12 1 0
BITMAP
38
44
00
3C
44
80
80
80
80
80
46
38
ENDCHAR
STARTCHAR 0109
ENCODING 265
SWIDTH 466 0
DWIDTH 7 0
BBX 5 11 1 0
BITMAP
20
50
88
00
78
88
80
80
80
C8
70
ENDCHAR
STARTCHAR 010A
ENCODING 266
SWIDTH 533 0
DWIDTH 8 0
BBX 7 11 1 0
BITMAP
10
10
3C
44
80
80
80
80
80
46
38
ENDCHAR
STARTCHAR 010B
ENCODING 267
SWIDTH 466 0
DWIDTH 7 0
BBX 5 10 1 0
BITMAP
20
20
00
78
88
80
80
80
C8
70
ENDCHAR
STARTCHAR 010C
ENCODING 268
SWIDTH 533 0
DWIDTH 8 0
BBX 7 12 1 0
BITMAP
6C
10
00
3C
44
80
80
80
80
80
46
38
ENDCHAR
STARTCHAR 010D
ENCODING 269
SWIDTH 466 0
DWIDTH 7 0
BBX 5 11 1 0
BITMAP
88
50
20
00
78
88
80
80
80
C8
70
ENDCHAR
STARTCHAR 010E
ENCODING 270
SWIDTH 600 0
DWIDTH 9 0
BBX 8 12 0 0
BITMAP
24
18
00
FC
42
41
41
41
41
41
42
FC
ENDCHAR
STARTCHAR 0110
ENCODING 272
SWIDTH 600 0
DWIDTH 9 0
BBX 8 9 0 0
BITMAP
FC
42
41
41
F1
41
41
42
FC
ENDCHAR
STARTCHAR 0111
ENCODING 273
SWIDTH 533 0
DWIDTH 8 0
BBX 7 11 1 0
BITMAP
0C
04
1E
04
3C
C4
84
84
84
CC
76
ENDCHAR
STARTCHAR 0112
ENCODING 274
SWIDTH 466 0
DWIDTH 7 0
BBX 6 11 1 0
BITMAP
F8
00
FC
44
40
78
40
40
40
44
FC
ENDCHAR
STARTCHAR 0113
ENCODING 275
SWIDTH 466 0
DWIDTH 7 0
BBX 5 9 1 0
BITMAP
F8
00
70
48
88
F8
80
C8
70
ENDCHAR
STARTCHAR 0114
ENCODING 276
SWIDTH 466 0
DWIDTH 7 0
BBX 6 12 1 0
BITMAP
C8
30
00
FC
44
40
78
40
40
40
44
FC
ENDCHAR
STARTCHAR 0115
ENCODING 277
SWIDTH 466 0
DWIDTH 7 0
BBX 5 10 1 0
BITMAP
88
70
00
70
48
88
F8
80
C8
70
ENDCHAR
STARTCHAR 0116
ENCODING 278
SWIDTH 466 0
DWIDTH 7 0
BBX 6 11 1 0
BITMAP
20
20
FC
44
40
78
40
40
40
44
FC
ENDCHAR
STARTCHAR 0117
ENCODING 279
SWIDTH 466 0
DWIDTH 7 0
BBX 5 10 1 0
BITMAP
20
20
00
70
48
88
F8
80
C8
70
ENDCHAR
STARTCHAR 011A
ENCODING 282
SWIDTH 466 0
DWIDTH 7 0
BBX 6 12 1 0
BITMAP
D8
20
00
FC
44
40
78
40
40
40
44
FC
ENDCHAR
STARTCHAR 011B
ENCODING 283
SWIDTH 466 0
DWIDTH 7 0
BBX 5 11 1 0
BITMAP
88
50
20
00
70
48
88
F8
80
C8
70
ENDCHAR
STARTCHAR 011C
ENCODING 284
SWIDTH 600 0
DWIDTH 9 0
BBX 8 12 1 0
BITMAP
38
44
00
1E
64
80
80
8F
82
82
42
3C
ENDCHAR
STARTCHAR 011D
ENCODING 285
SWIDTH 466 0
DWIDTH 7 0
BBX 7 15 0 -4
BITMAP
10
28
44
00
7E
84
84
C4
78
60
78
46
82
86
78
ENDCHAR
STARTCHAR 011E
ENCODING 286
SWIDTH 600 0
DWIDTH 9 0
BBX 8 12 1 0
BITMAP
64
18
00
1E
64
80
80
8F
82
82
42
3C
ENDCHAR
STARTCHAR 011F
ENCODING 287
SWIDTH 466 0
DWIDTH 7 0
BBX 7 14 0 -4
BITMAP
44
38
00
7E
84
84
C4
78
60
78
46
82
86
78
ENDCHAR
STARTCHAR 0120
ENCODING 288
SWIDTH 600 0
DWIDTH 9 0
BBX 8 11 1 0
BITMAP
10
10
1E
64
80
80
8F
82
82
42
3C
ENDCHAR
STARTCHAR 0121
ENCODING 289
SWIDTH 466 0
DWIDTH 7 0
BBX 7 14 0 -4
BITMAP
10
10
00
7E
84
84
C4
78
60
78
46
82
86
78
ENDCHAR
STARTCHAR 0124
ENCODING 292
SWIDTH 666 0
DWIDTH 10 0
BBX 9 12 0 0
BITMAP
1C00
2200
0000
E380
4100
4100
4100
7F00
4100
4100
4100
E380
ENDCHAR
STARTCHAR 0125
ENCODING 293
SWIDTH 533 0
DWIDTH 8 0
BBX 8 14 0 0
BITMAP
18
24
02
C0
40
40
40
4E
72
42
42
42
42
E7
ENDCHAR
STARTCHAR 0128
ENCODING 296
SWIDTH 266 0
DWIDTH 4 0
BBX 5 12 0 0
BITMAP
C8
F0
00
70
20
20
20
20
20
20
20
70
ENDCHAR
STARTCHAR 0129
ENCODING 297
SWIDTH 266 0
DWIDTH 4 0
BBX 5 10 0 0
BITMAP
D8
B0
00
60
20
20
20
20
20
70
ENDCHAR
STARTCHAR 012A
ENCODING 298
SWIDTH 266 0
DWIDTH 4 0
BBX 4 11 0 0
BITMAP
F0
00
70
20
20
20
20
20
20
20
70
ENDCHAR
STARTCHAR 012B
ENCODING 299
SWIDTH 266 0
DWIDTH 4 0
BBX 4 9 0 0
BITMAP
F0
00
60
20
20
20
20
20
70
ENDCHAR
STARTCHAR 012C
ENCODING 300
SWIDTH 266 0
DWIDTH 4 0
BBX 5 12 0 0
BITMAP
98
60
00
70
20
20
20
20
20
20
20
70
ENDCHAR
STARTCHAR 012D
ENCODING 301
SWIDTH 266 0
DWIDTH 4 0
BBX 4 10 0 0
BITMAP
90
70
00
60
20
20
20
20
20
70
ENDCHAR
STARTCHAR 0130
ENCODING 304
SWIDTH 266 0
DWIDTH 4 0
BBX 3 11 1 0
BITMAP
40
80
60
40
40
40
40
40
40
40
E0
ENDCHAR
STARTCHAR 0131
ENCODING 305
SWIDTH 266 0
DWIDTH 4 0
BBX 3 7 1 0
BITMAP
C0
40
40
40
40
40
E0
ENDCHAR
STARTCHAR 0132
ENCODING 306
SWIDTH 600 0
DWIDTH 9 0
BBX 8 12 1 -3
BITMAP
EF
44
44
44
44
44
44
44
44
A4
04
38
ENDCHAR
STARTCHAR 0133
ENCODING 307
SWIDTH 533 0
DWIDTH 8 0
BBX 6 14 1 -4
BITMAP
44
44
00
C4
4C
44
44
44
44
44
A4
04
08
30
ENDCHAR
STARTCHAR 0139
ENCODING 313
SWIDTH 466 0
DWIDTH 7 0
BBX 6 12 1 0
BITMAP
18
60
00
E0
40
40
40
40
40
40
44
FC
ENDCHAR
STARTCHAR 013A
ENCODING 314
SWIDTH 266 0
DWIDTH 4 0
BBX 4 15 1 0
BITMAP
20
50
80
00
C0
40
40
40
40
40
40
40
40
40
E0
ENDCHAR
STARTCHAR 0141
ENCODING 321
SWIDTH 466 0
DWIDTH 7 0
BBX 6 9 1 0
BITMAP
E0
40
40
50
60
C0
40
44
FC
ENDCHAR
STARTCHAR 0142
ENCODING 322
SWIDTH 266 0
DWIDTH 4 0
BBX 3 11 1 0
BITMAP
C0
40
40
40
60
40
C0
40
40
40
E0
ENDCHAR
STARTCHAR 0143
ENCODING 323
SWIDTH 666 0
DWIDTH 10 0
BBX 10 12 0 0
BITMAP
0600
1800
0000
C1C0
6080
5080
5880
4C80
4680
4380
4180
E080
ENDCHAR
STARTCHAR 0144
ENCODING 324
SWIDTH 533 0
DWIDTH 8 0
BBX 8 11 0 0
BITMAP
04
08
10
00
4E
F2
42
42
42
42
E7
ENDCHAR
STARTCHAR 0147
ENCODING 327
SWIDTH 666 0
DWIDTH 10 0
BBX 10 12 0 0
BITMAP
1200
0C00
0000
C1C0
6080
5080
5880
4C80
4680
4380
4180
E080
ENDCHAR
STARTCHAR 0148
ENCODING 328
SWIDTH 533 0
DWIDTH 8 0
BBX 8 11 0 0
BITMAP
26
14
18
00
4E
F2
42
42
42
42
E7
ENDCHAR
STARTCHAR 014A
ENCODING 330
SWIDTH 600 0
DWIDTH 9 0
BBX 8 12 0 -3
BITMAP
CE
51
61
41
41
41
41
41
41
A1
12
3C
ENDCHAR
STARTCHAR 014B
ENCODING 331
SWIDTH 533 0
DWIDTH 8 0
BBX 7 11 0 -4
BITMAP
4E
F2
42
42
42
42
42
A2
02
24
38
ENDCHAR
STARTCHAR 014C
ENCODING 332
SWIDTH 600 0
DWIDTH 9 0
BBX 7 11 1 0
BITMAP
7C
00
38
44
82
82
82
82
82
44
38
ENDCHAR
STARTCHAR 014D
ENCODING 333
SWIDTH 533 0
DWIDTH 8 0
BBX 6 9 1 0
BITMAP
78
00
38
CC
84
84
84
C8
70
ENDCHAR
STARTCHAR 014E
ENCODING 334
SWIDTH 600 0
DWIDTH 9 0
BBX 7 12 1 0
BITMAP
6C
10
00
38
44
82
82
82
82
82
44
38
ENDCHAR
STARTCHAR 014F
ENCODING 335
SWIDTH 533 0
DWIDTH 8 0
BBX 6 10 1 0
BITMAP
88
70
00
38
CC
84
84
84
C8
70
ENDCHAR
STARTCHAR 0150
ENCODING 336
SWIDTH 600 0
DWIDTH 9 0
BBX 7 13 1 0
BITMAP
14
28
48
00
38
44
82
82
82
82
82
44
38
ENDCHAR
STARTCHAR 0151
ENCODING 337
SWIDTH 533 0
DWIDTH 8 0
BBX 6 11 1 0
BITMAP
3C
28
50
00
38
CC
84
84
84
C8
70
ENDCHAR
STARTCHAR 0152
ENCODING 338
SWIDTH 800 0
DWIDTH 12 0
BBX 10 9 1 0
BITMAP
3FC0
4440
8400
8780
8400
8400
8400
4440
3FC0
ENDCHAR
STARTCHAR 0153
ENCODING 339
SWIDTH 800 0
DWIDTH 12 0
BBX 10 7 1 0
BITMAP
3980
CE40
8440
87C0
8400
8640
7B80
ENDCHAR
STARTCHAR 0154
ENCODING 340
SWIDTH 533 0
DWIDTH 8 0
BBX 8 12 0 0
BITMAP
0C
30
00
F8
44
44
44
58
68
48
44
E7
ENDCHAR
STARTCHAR 0155
ENCODING 341
SWIDTH 400 0
DWIDTH 6 0
BBX 6 11 0 0
BITMAP
0C
10
20
00
D8
68
40
40
40
40
E0
ENDCHAR
STARTCHAR 0158
ENCODING 344
SWIDTH 533 0
DWIDTH 8 0
BBX 8 12 0 0
BITMAP
6C
10
00
F8
44
44
44
58
68
48
44
E7
ENDCHAR
STARTCHAR 0159
ENCODING 345
SWIDTH 400 0
DWIDTH 6 0
BBX 6 11 0 0
BITMAP
4C
28
10
00
D8
68
40
40
40
40
E0
ENDCHAR
STARTCHAR 015A
ENCODING 346
SWIDTH 466 0
DWIDTH 7 0
BBX 5 12 1 0
BITMAP
18
60
00
70
98
80
40
30
08
88
88
F0
ENDCHAR
STARTCHAR 015B
ENCODING 347
SWIDTH 400 0
DWIDTH 6 0
BBX 4 11 1 0
BITMAP
10
20
40
00
60
B0
80
60
10
90
E0
ENDCHAR
STARTCHAR 015C
ENCODING 348
SWIDTH 466 0
DWIDTH 7 0
BBX 5 12 1 0
BITMAP
70
88
00
70
98
80
40
30
08
88
88
F0
ENDCHAR
STARTCHAR 015D
ENCODING 349
SWIDTH 400 0
DWIDTH 6 0
BBX 4 11 1 0
BITMAP
60
A0
90
00
60
B0
80
60
10
90
E0
ENDCHAR
STARTCHAR 0160
ENCODING 352
SWIDTH 466 0
DWIDTH 7 0
BBX 5 12 1 0
BITMAP
D8
20
00
70
98
80
40
30
08
88
88
F0
ENDCHAR
STARTCHAR 0161
ENCODING 353
SWIDTH 400 0
DWIDTH 6 0
BBX 4 11 1 0
BITMAP
90
E0
60
00
60
B0
80
60
10
90
E0
ENDCHAR
STARTCHAR 0164
ENCODING 356
SWIDTH 533 0
DWIDTH 8 0
BBX 7 12 1 0
BITMAP
48
30
00
FE
92
10
10
10
10
10
10
38
ENDCHAR
STARTCHAR 0168
ENCODING 360
SWIDTH 666 0
DWIDTH 10 0
BBX 9 12 0 0
BITMAP
1A00
3C00
0000
E380
4100
4100
4100
4100
4100
4100
6200
3C00
ENDCHAR
STARTCHAR 0169
ENCODING 361
SWIDTH 533 0
DWIDTH 8 0
BBX 8 10 0 0
BITMAP
34
4C
00
C6
42
42
42
42
46
3B
ENDCHAR
STARTCHAR 016A
ENCODING 362
SWIDTH 666 0
DWIDTH 10 0
BBX 9 11 0 0
BITMAP
1F00
0000
E380
4100
4100
4100
4100
4100
4100
6200
3C00
ENDCHAR
STARTCHAR 016B
ENCODING 363
SWIDTH 533 0
DWIDTH 8 0
BBX 8 9 0 0
BITMAP
3E
00
C6
42
42
42
42
46
3B
ENDCHAR
STARTCHAR 016C
ENCODING 364
SWIDTH 666 0
DWIDTH 10 0
BBX 9 12 0 0
BITMAP
1200
0C00
0000
E380
4100
4100
4100
4100
4100
4100
6200
3C00
ENDCHAR
STARTCHAR 016D
ENCODING 365
SWIDTH 533 0
DWIDTH 8 0
BBX 8 10 0 0
BITMAP
44
38
00
C6
42
42
42
42
46
3B
ENDCHAR
STARTCHAR 016E
ENCODING 366
SWIDTH 666 0
DWIDTH 10 0
BBX 9 13 0 0
BITMAP
0E00
1200
0C00
0C00
E380
4100
4100
4100
4100
4100
4100
6200
3C00
ENDCHAR
STARTCHAR 016F
ENCODING 367
SWIDTH 533 0
DWIDTH 8 0
BBX 8 11 0 0
BITMAP
18
14
14
18
C6
42
42
42
42
46
3B
ENDCHAR
STARTCHAR 0170
ENCODING 368
SWIDTH 666 0
DWIDTH 10 0
BBX 9 13 0 0
BITMAP
0F00
0A00
1400
0000
E380
4100
4100
4100
4100
4100
4100
6200
3C00
ENDCHAR
STARTCHAR 0171
ENCODING 369
SWIDTH 533 0
DWIDTH 8 0
BBX 8 11 0 0
BITMAP
1A
14
28
00
C6
42
42
42
42
46
3B
ENDCHAR
STARTCHAR 0174
ENCODING 372
SWIDTH 866 0
DWIDTH 13 0
BBX 12 12 0 0
BITMAP
0700
0880
0000
E270
4220
2620
2520
2920
29C0
38C0
10C0
10C0
ENDCHAR
STARTCHAR 0175
ENCODING 373
SWIDTH 733 0
DWIDTH 11 0
BBX 10 11 0 0
BITMAP
0400
0A00
1100
0000
E4C0
4480
6E80
2A80
3280
3100
1100
ENDCHAR
STARTCHAR 0176
ENCODING 374
SWIDTH 600 0
DWIDTH 9 0
BBX 9 12 0 0
BITMAP
1C00
2200
0000
E380
6200
3200
1400
1C00
0800
0800
0800
1C00
ENDCHAR
STARTCHAR 0177
ENCODING 375
SWIDTH 466 0
DWIDTH 7 0
BBX 7 15 0 -4
BITMAP
18
28
44
00
E6
44
24
24
28
18
10
10
10
20
C0
ENDCHAR
STARTCHAR 0178
ENCODING 376
SWIDTH 600 0
DWIDTH 9 0
BBX 9 11 0 0
BITMAP
2400
2400
E380
6200
3200
1400
1C00
0800
0800
0800
1C00
ENDCHAR
STARTCHAR 0179
ENCODING 377
SWIDTH 533 0
DWIDTH 8 0
BBX 7 12 0 0
BITMAP
0E
10
00
7E
44
04
08
10
10
22
42
FE
ENDCHAR
STARTCHAR 017A
ENCODING 378
SWIDTH 466 0
DWIDTH 7 0
BBX 5 11 1 0
BITMAP
18
10
20
00
F8
90
20
20
40
88
F8
ENDCHAR
STARTCHAR 017B
ENCODING 379
SWIDTH 533 0
DWIDTH 8 0
BBX 7 11 0 0
BITMAP
08
10
7E
44
04
08
10
10
22
42
FE
ENDCHAR
STARTCHAR 017C
ENCODING 380
SWIDTH 466 0
DWIDTH 7 0
BBX 5 10 1 0
BITMAP
20
20
00
F8
90
20
20
40
88
F8
ENDCHAR
STARTCHAR 017D
ENCODING 381
SWIDTH 533 0
DWIDTH 8 0
BBX 7 12 0 0
BITMAP
24
18
00
7E
44
04
08
10
10
22
42
FE
ENDCHAR
STARTCHAR 017E
ENCODING 382
SWIDTH 466 0
DWIDTH 7 0
BBX 5 11 1 0
BITMAP
88
50
20
00
F8
90
20
20
40
88
F8
ENDCHAR
STARTCHAR 0181
ENCODING 385
SWIDTH 666 0
DWIDTH 10 0
BBX 9 9 0 0
BITMAP
3E00
D100
9100
9F00
1180
1080
1080
1080
3F00
ENDCHAR
STARTCHAR 0186
ENCODING 390
SWIDTH 533 0
DWIDTH 8 0
BBX 7 9 0 0
BITMAP
78
84
02
02
02
82
82
84
78
ENDCHAR
STARTCHAR 0189
ENCODING 393
SWIDTH 600 0
DWIDTH 9 0
BBX 8 9 0 0
BITMAP
FC
42
41
41
F1
41
41
42
FC
ENDCHAR
STARTCHAR 018A
ENCODING 394
SWIDTH 733 0
DWIDTH 11 0
BBX 10 9 0 0
BITMAP
3F00
D180
9040
9040
1040
1040
1040
1080
3F00
ENDCHAR
STARTCHAR 018E
ENCODING 398
SWIDTH 533 0
DWIDTH 8 0
BBX 6 9 1 0
BITMAP
FC
88
08
78
08
08
88
88
FC
ENDCHAR
STARTCHAR 0190
ENCODING 400
SWIDTH 533 0
DWIDTH 8 0
BBX 6 9 1 0
BITMAP
3C
C4
80
C0
F0
C0
80
84
78
ENDCHAR
STARTCHAR 0192
ENCODING 402
SWIDTH 266 0
DWIDTH 4 0
BBX 7 15 -2 -4
BITMAP
0E
12
10
10
3C
10
10
10
10
10
10
10
10
20
C0
ENDCHAR
STARTCHAR 0197
ENCODING 407
SWIDTH 266 0
DWIDTH 4 0
BBX 3 9 1 0
BITMAP
E0
40
40
40
E0
40
40
40
E0
ENDCHAR
STARTCHAR 0198
ENCODING 408
SWIDTH 600 0
DWIDTH 9 0
BBX 8 9 0 0
BITMAP
E7
49
59
50
60
50
48
44
E3
ENDCHAR
STARTCHAR 0199
ENCODING 409
SWIDTH 533 0
DWIDTH 8 0
BBX 7 11 0 0
BITMAP
1C
24
40
40
4E
48
70
70
50
48
E6
ENDCHAR
STARTCHAR 019A
ENCODING 410
SWIDTH 333 0
DWIDTH 5 0
BBX 3 11 1 0
BITMAP
C0
40
40
40
40
E0
40
40
40
40
E0
ENDCHAR
STARTCHAR 019D
ENCODING 413
SWIDTH 666 0
DWIDTH 10 0
BBX 12 12 -2 -3
BITMAP
3070
1820
1C20
1620
1320
11A0
10A0
1060
1020
1000
2000
C000
ENDCHAR
STARTCHAR 019F
ENCODING 415
SWIDTH 600 0
DWIDTH 9 0
BBX 7 9 1 0
BITMAP
38
44
82
82
FE
82
82
44
38
ENDCHAR
STARTCHAR 01A0
ENCODING 416
SWIDTH 666 0
DWIDTH 10 0
BBX 8 11 1 0
BITMAP
03
01
3E
44
82
82
82
82
82
44
38
ENDCHAR
STARTCHAR 01A1
ENCODING 417
SWIDTH 600 0
DWIDTH 9 0
BBX 7 8 1 0
BITMAP
02
3A
CC
84
84
84
C8
70
ENDCHAR
STARTCHAR 01A9
ENCODING 425
SWIDTH 533 0
DWIDTH 8 0
BBX 7 9 0 0
BITMAP
7E
62
20
10
08
10
22
42
FE
ENDCHAR
STARTCHAR 01AA
ENCODING 426
SWIDTH 333 0
DWIDTH 5 0
BBX 7 16 0 -4
BITMAP
60
90
90
F0
10
10
10
10
10
10
10
10
10
10
12
0C
ENDCHAR
STARTCHAR 01AF
ENCODING 431
SWIDTH 666 0
DWIDTH 10 0
BBX 10 11 0 0
BITMAP
00C0
0040
E380
4100
4100
4100
4100
4100
4100
6200
3C00
ENDCHAR
STARTCHAR 01B0
ENCODING 432
SWIDTH 600 0
DWIDTH 9 0
BBX 9 8 0 0
BITMAP
0180
C280
4700
4200
4200
4200
4600
3B00
ENDCHAR
STARTCHAR 01B3
ENCODING 435
SWIDTH 666 0
DWIDTH 10 0
BBX 11 9 0 0
BITMAP
E0C0
6120
3220
1600
1C00
0800
0800
0800
1C00
ENDCHAR
STARTCHAR 01B4
ENCODING 436
SWIDTH 466 0
DWIDTH 7 0
BBX 10 13 0 -4
BITMAP
01C0
0200
E200
4400
2400
2400
2800
1800
1800
1000
1000
2000
C000
ENDCHAR
STARTCHAR 01B7
ENCODING 439
SWIDTH 533 0
DWIDTH 8 0
BBX 6 9 1 0
BITMAP
FC
88
10
38
44
04
04
84
78
ENDCHAR
STARTCHAR 01CD
ENCODING 461
SWIDTH 600 0
DWIDTH 9 0
BBX 9 12 0 0
BITMAP
2600
1800
0000
0800
0800
1400
1400
2400
3E00
2200
4300
E380
ENDCHAR
STARTCHAR 01CE
ENCODING 462
SWIDTH 466 0
DWIDTH 7 0
BBX 6 11 1 0
BITMAP
88
50
20
00
38
48
88
38
C8
88
FC
ENDCHAR
STARTCHAR 01CF
ENCODING 463
SWIDTH 266 0
DWIDTH 4 0
BBX 4 12 0 0
BITMAP
90
60
00
70
20
20
20
20
20
20
20
70
ENDCHAR
STARTCHAR 01D0
ENCODING 464
SWIDTH 266 0
DWIDTH 4 0
BBX 4 11 0 0
BITMAP
90
70
60
00
60
20
20
20
20
20
70
ENDCHAR
STARTCHAR 01D1
ENCODING 465
SWIDTH 600 0
DWIDTH 9 0
BBX 7 13 1 0
BITMAP
4C
38
10
00
38
44
82
82
82
82
82
44
38
ENDCHAR
STARTCHAR 01D2
ENCODING 466
SWIDTH 533 0
DWIDTH 8 0
BBX 6 11 1 0
BITMAP
88
70
30
00
38
CC
84
84
84
C8
70
ENDCHAR
STARTCHAR 01D3
ENCODING 467
SWIDTH 666 0
DWIDTH 10 0
BBX 9 12 0 0
BITMAP
1200
0C00
0000
E380
4100
4100
4100
4100
4100
4100
6200
3C00
ENDCHAR
STARTCHAR 01D4
ENCODING 468
SWIDTH 533 0
DWIDTH 8 0
BBX 8 11 0 0
BITMAP
24
38
18
00
C6
42
42
42
42
46
3B
ENDCHAR
STARTCHAR 01D5
ENCODING 469
SWIDTH 666 0
DWIDTH 10 0
BBX 9 14 0 0
BITMAP
1F00
0000
0000
2200
2400
C380
4100
4100
4100
4100
4100
4100
6200
3C00
ENDCHAR
STARTCHAR 01D6
ENCODING 470
SWIDTH 533 0
DWIDTH 8 0
BBX 8 12 0 0
BITMAP
3E
00
24
44
00
C6
42
42
42
42
46
3B
ENDCHAR
STARTCHAR 01D7
ENCODING 471
SWIDTH 666 0
DWIDTH 10 0
BBX 9 15 0 0
BITMAP
0200
0400
0800
0000
2200
2400
C380
4100
4100
4100
4100
4100
4100
6200
3C00
ENDCHAR
STARTCHAR 01D8
ENCODING 472
SWIDTH 533 0
DWIDTH 8 0
BBX 8 14 0 0
BITMAP
04
08
08
10
24
44
00
C6
42
42
42
42
46
3B
ENDCHAR
STARTCHAR 01D9
ENCODING 473
SWIDTH 666 0
DWIDTH 10 0
BBX 9 15 0 0
BITMAP
2200
1C00
0000
0000
2200
2400
C380
4100
4100
4100
4100
4100
4100
6200
3C00
ENDCHAR
STARTCHAR 01DA
ENCODING 474
SWIDTH 533 0
DWIDTH 8 0
BBX 8 14 0 0
BITMAP
44
24
18
00
24
44
00
C6
42
42
42
42
46
3B
ENDCHAR
STARTCHAR 01DB
ENCODING 475
SWIDTH 666 0
DWIDTH 10 0
BBX 9 15 0 0
BITMAP
1000
2800
0400
0000
2200
2400
C380
4100
4100
4100
4100
4100
4100
6200
3C00
ENDCHAR
STARTCHAR 01DC
ENCODING 476
SWIDTH 533 0
DWIDTH 8 0
BBX 8 14 0 0
BITMAP
20
10
10
08
24
44
00
C6
42
42
42
42
46
3B
ENDCHAR
STARTCHAR 01DD
ENCODING 477
SWIDTH 466 0
DWIDTH 7 0
BBX 5 7 1 0
BITMAP
70
98
08
F8
88
90
70
ENDCHAR
STARTCHAR 01DE
ENCODING 478
SWIDTH 600 0
DWIDTH 9 0
BBX 9 14 0 0
BITMAP
3E00
0000
0000
2400
2400
0800
0800
1400
1400
2400
3E00
2200
4300
E380
ENDCHAR
STARTCHAR 01DF
ENCODING 479
SWIDTH 466 0
DWIDTH 7 0
BBX 6 12 1 0
BITMAP
F8
00
90
90
00
38
48
88
38
C8
88
FC
ENDCHAR
STARTCHAR 01E0
ENCODING 480
SWIDTH 600 0
DWIDTH 9 0
BBX 9 14 0 0
BITMAP
3E00
0000
0000
0800
0800
0800
0800
1400
1400
2400
3E00
2200
4300
E380
ENDCHAR
STARTCHAR 01E1
ENCODING 481
SWIDTH 466 0
DWIDTH 7 0
BBX 6 12 1 0
BITMAP
F8
00
20
20
00
38
48
88
38
C8
88
FC
ENDCHAR
STARTCHAR 01E2
ENCODING 482
SWIDTH 800 0
DWIDTH 12 0
BBX 11 11 0 0
BITMAP
0F80
0000
1FE0
0A20
1200
1FC0
1200
2200
2200
2220
E7E0
ENDCHAR
STARTCHAR 01E3
ENCODING 483
SWIDTH 666 0
DWIDTH 10 0
BBX 9 9 1 0
BITMAP
3E00
0000
3F00
4C80
8880
3F80
C800
8880
F700
ENDCHAR
STARTCHAR 01E6
ENCODING 486
SWIDTH 600 0
DWIDTH 9 0
BBX 8 12 1 0
BITMAP
6C
10
00
1E
64
80
80
8F
82
82
42
3C
ENDCHAR
STARTCHAR 01E7
ENCODING 487
SWIDTH 466 0
DWIDTH 7 0
BBX 7 15 0 -4
BITMAP
44
28
10
00
7E
84
84
C4
78
60
78
46
82
86
78
ENDCHAR
STARTCHAR 01E8
ENCODING 488
SWIDTH 600 0
DWIDTH 9 0
BBX 8 12 1 0
BITMAP
4C
30
00
EF
44
48
50
60
50
48
44
E7
ENDCHAR
STARTCHAR 01E9
ENCODING 489
SWIDTH 533 0
DWIDTH 8 0
BBX 7 14 0 0
BITMAP
24
18
00
C0
40
40
40
4E
48
70
70
50
48
E6
ENDCHAR
STARTCHAR 01EE
ENCODING 494
SWIDTH 533 0
DWIDTH 8 0
BBX 6 13 1 0
BITMAP
48
30
20
00
FC
88
10
38
44
04
04
84
78
ENDCHAR
STARTCHAR 01EF
ENCODING 495
SWIDTH 466 0
DWIDTH 7 0
BBX 6 14 0 -4
BITMAP
4C
30
00
7C
88
10
10
38
4C
04
04
04
48
F8
ENDCHAR
STARTCHAR 01F4
ENCODING 500
SWIDTH 600 0
DWIDTH 9 0
BBX 8 12 1 0
BITMAP
0C
30
00
1E
64
80
80
8F
82
82
42
3C
ENDCHAR
STARTCHAR 01F5
ENCODING 501
SWIDTH 466 0
DWIDTH 7 0
BBX 7 15 0 -4
BITMAP
0C
08
10
00
7E
84
84
C4
78
60
78
46
82
86
78
ENDCHAR
STARTCHAR 01F8
ENCODING 504
SWIDTH 666 0
DWIDTH 10 0
BBX 10 12 0 0
BITMAP
3800
0400
0000
C1C0
6080
5080
5880
4C80
4680
4380
4180
E080
ENDCHAR
STARTCHAR 01F9
ENCODING 505
SWIDTH 533 0
DWIDTH 8 0
BBX 8 11 0 0
BITMAP
30
10
08
00
4E
F2
42
42
42
42
E7
ENDCHAR
STARTCHAR 01FA
ENCODING 506
SWIDTH 600 0
DWIDTH 9 0
BBX 9 16 0 0
BITMAP
0400
0E00
1000
0C00
1400
1400
0800
0800
0800
1400
1400
2400
3E00
2200
4300
E380
ENDCHAR
STARTCHAR 01FB
ENCODING 507
SWIDTH 466 0
DWIDTH 7 0
BBX 6 14 1 0
BITMAP
18
20
40
30
50
50
30
38
48
88
38
C8
88
FC
ENDCHAR
STARTCHAR 01FC
ENCODING 508
SWIDTH 800 0
DWIDTH 12 0
BBX 11 12 0 0
BITMAP
0180
0600
0000
1FE0
0A20
1200
1FC0
1200
2200
2200
2220
E7E0
ENDCHAR
STARTCHAR 01FD
ENCODING 509
SWIDTH 666 0
DWIDTH 10 0
BBX 9 11 1 0
BITMAP
0600
0C00
0800
0000
3F00
4C80
8880
3F80
C800
8880
F700
ENDCHAR
STARTCHAR 01FE
ENCODING 510
SWIDTH 600 0
DWIDTH 9 0
BBX 7 12 1 0
BITMAP
0C
30
00
3A
44
8A
8A
92
A2
C2
44
B8
ENDCHAR
STARTCHAR 01FF
ENCODING 511
SWIDTH 533 0
DWIDTH 8 0
BBX 6 11 1 0
BITMAP
08
10
20
00
3C
CC
94
A4
A4
C8
F0
ENDCHAR
STARTCHAR 021E
ENCODING 542
SWIDTH 666 0
DWIDTH 10 0
BBX 9 12 0 0
BITMAP
3200
0C00
0000
E380
4100
4100
4100
7F00
4100
4100
4100
E380
ENDCHAR
STARTCHAR 021F
ENCODING 543
SWIDTH 533 0
DWIDTH 8 0
BBX 8 14 0 0
BITMAP
26
18
00
C0
40
40
40
4E
72
42
42
42
42
E7
ENDCHAR
STARTCHAR 0226
ENCODING 550
SWIDTH 600 0
DWIDTH 9 0
BBX 9 11 0 0
BITMAP
0800
0800
0800
0800
1400
1400
2400
3E00
2200
4300
E380
ENDCHAR
STARTCHAR 0227
ENCODING 551
SWIDTH 466 0
DWIDTH 7 0
BBX 6 10 1 0
BITMAP
20
20
00
38
48
88
38
C8
88
FC
ENDCHAR
STARTCHAR 0228
ENCODING 552
SWIDTH 466 0
DWIDTH 7 0
BBX 6 12 0 -3
BITMAP
FC
44
40
78
40
40
40
44
7C
A0
10
20
ENDCHAR
STARTCHAR 0229
ENCODING 553
SWIDTH 466 0
DWIDTH 7 0
BBX 5 10 1 -3
BITMAP
70
48
88
F8
80
C8
70
20
10
30
ENDCHAR
STARTCHAR 022A
ENCODING 554
SWIDTH 600 0
DWIDTH 9 0
BBX 7 14 1 0
BITMAP
7C
00
00
48
48
38
44
82
82
82
82
82
44
38
ENDCHAR
STARTCHAR 022B
ENCODING 555
SWIDTH 533 0
DWIDTH 8 0
BBX 6 12 1 0
BITMAP
78
00
88
88
00
38
CC
84
84
84
C8
70
ENDCHAR
STARTCHAR 022C
ENCODING 556
SWIDTH 600 0
DWIDTH 9 0
BBX 7 14 1 0
BITMAP
7C
00
34
78
00
38
44
82
82
82
82
82
44
38
ENDCHAR
STARTCHAR 022D
ENCODING 557
SWIDTH 533 0
DWIDTH 8 0
BBX 6 12 1 0
BITMAP
78
00
68
98
00
38
CC
84
84
84
C8
70
ENDCHAR
STARTCHAR 022E
ENCODING 558
SWIDTH 600 0
DWIDTH 9 0
BBX 7 11 1 0
BITMAP
10
10
38
44
82
82
82
82
82
44
38
ENDCHAR
STARTCHAR 022F
ENCODING 559
SWIDTH 533 0
DWIDTH 8 0
BBX 6 10 1 0
BITMAP
20
20
00
38
CC
84
84
84
C8
70
ENDCHAR
STARTCHAR 0230
ENCODING 560
SWIDTH 600 0
DWIDTH 9 0
BBX 7 14 1 0
BITMAP
7C
00
00
10
10
38
44
82
82
82
82
82
44
38
ENDCHAR
STARTCHAR 0231
ENCODING 561
SWIDTH 533 0
DWIDTH 8 0
BBX 6 12 1 0
BITMAP
78
00
20
20
00
38
CC
84
84
84
C8
70
ENDCHAR
STARTCHAR 0232
ENCODING 562
SWIDTH 600 0
DWIDTH 9 0
BBX 9 11 0 0
BITMAP
3E00
0000
E380
6200
3200
1400
1C00
0800
0800
0800
1C00
ENDCHAR
STARTCHAR 0233
ENCODING 563
SWIDTH 466 0
DWIDTH 7 0
BBX 7 13 0 -4
BITMAP
3C
40
E6
44
24
24
28
18
10
10
10
20
C0
ENDCHAR
STARTCHAR 0237
ENCODING 567
SWIDTH 266 0
DWIDTH 4 0
BBX 4 11 -1 -4
BITMAP
30
10
10
10
10
10
10
10
10
20
C0
ENDCHAR
STARTCHAR 023D
ENCODING 573
SWIDTH 466 0
DWIDTH 7 0
BBX 6 9 1 0
BITMAP
E0
40
40
40
F0
40
40
44
FC
ENDCHAR
STARTCHAR 0241
ENCODING 577
SWIDTH 466 0
DWIDTH 7 0
BBX 6 9 0 0
BITMAP
38
C4
84
04
08
10
10
10
38
ENDCHAR
STARTCHAR 0242
ENCODING 578
SWIDTH 400 0
DWIDTH 6 0
BBX 4 7 1 0
BITMAP
70
90
90
20
40
40
E0
ENDCHAR
STARTCHAR 0244
ENCODING 580
SWIDTH 666 0
DWIDTH 10 0
BBX 9 9 0 0
BITMAP
E380
4100
4100
4100
FF80
4100
4100
6300
3E00
ENDCHAR
STARTCHAR 0245
ENCODING 581
SWIDTH 666 0
DWIDTH 10 0
BBX 9 9 0 0
BITMAP
0800
0C00
1400
1600
1200
2200
2100
4100
E380
ENDCHAR
STARTCHAR 024A
ENCODING 586
SWIDTH 533 0
DWIDTH 8 0
BBX 9 13 1 -4
BITMAP
1E00
6200
8200
8200
8200
8200
8200
4600
3A00
0200
0200
0280
0300
ENDCHAR
STARTCHAR 024B
ENCODING 587
SWIDTH 466 0
DWIDTH 7 0
BBX 8 11 1 -4
BITMAP
3C
44
84
84
84
CC
74
04
04
05
06
ENDCHAR
STARTCHAR 0251
ENCODING 593
SWIDTH 533 0
DWIDTH 8 0
BBX 7 7 1 0
BITMAP
3C
C4
84
84
84
CC
76
ENDCHAR
STARTCHAR 0253
ENCODING 595
SWIDTH 533 0
DWIDTH 8 0
BBX 6 11 1 0
BITMAP
38
48
80
80
B8
C4
84
84
84
88
70
ENDCHAR
STARTCHAR 0254
ENCODING 596
SWIDTH 466 0
DWIDTH 7 0
BBX 6 7 0 0
BITMAP
78
8C
04
04
84
88
70
ENDCHAR
STARTCHAR 0256
ENCODING 598
SWIDTH 533 0
DWIDTH 8 0
BBX 9 15 1 -4
BITMAP
0C00
0400
0400
0400
3C00
C400
8400
8400
8400
CC00
7400
0400
0400
0480
0700
ENDCHAR
STARTCHAR 0257
ENCODING 599
SWIDTH 533 0
DWIDTH 8 0
BBX 9 11 1 0
BITMAP
0380
0500
0400
0400
3C00
C400
8400
8400
8400
CC00
7600
ENDCHAR
STARTCHAR 0259
ENCODING 601
SWIDTH 466 0
DWIDTH 7 0
BBX 5 7 1 0
BITMAP
70
98
08
F8
88
90
70
ENDCHAR
STARTCHAR 025B
ENCODING 603
SWIDTH 400 0
DWIDTH 6 0
BBX 5 7 1 0
BITMAP
78
88
80
60
80
88
F0
ENDCHAR
STARTCHAR 0263
ENCODING 611
SWIDTH 466 0
DWIDTH 7 0
BBX 7 11 0 -4
BITMAP
EE
44
28
28
30
10
10
28
28
28
30
ENDCHAR
STARTCHAR 0268
ENCODING 616
SWIDTH 266 0
DWIDTH 4 0
BBX 3 10 1 0
BITMAP
40
40
00
C0
40
40
E0
40
40
E0
ENDCHAR
STARTCHAR 0269
ENCODING 617
SWIDTH 266 0
DWIDTH 4 0
BBX 4 7 0 0
BITMAP
C0
40
40
40
40
50
60
ENDCHAR
STARTCHAR 026B
ENCODING 619
SWIDTH 333 0
DWIDTH 5 0
BBX 5 11 0 0
BITMAP
60
20
20
20
68
B0
20
20
20
20
70
ENDCHAR
STARTCHAR 0272
ENCODING 626
SWIDTH 533 0
DWIDTH 8 0
BBX 10 11 -2 -4
BITMAP
1380
3C80
1080
1080
1080
1080
1080
1140
1000
2000
C000
ENDCHAR
STARTCHAR 0275
ENCODING 629
SWIDTH 533 0
DWIDTH 8 0
BBX 6 7 1 0
BITMAP
38
CC
84
FC
84
C8
70
ENDCHAR
STARTCHAR 0283
ENCODING 643
SWIDTH 266 0
DWIDTH 4 0
BBX 7 15 -2 -4
BITMAP
0E
14
10
10
10
10
10
18
08
08
08
08
08
10
E0
ENDCHAR
STARTCHAR 0289
ENCODING 649
SWIDTH 533 0
DWIDTH 8 0
BBX 8 7 0 0
BITMAP
C6
42
42
FF
42
46
7B
ENDCHAR
STARTCHAR 028A
ENCODING 650
SWIDTH 466 0
DWIDTH 7 0
BBX 5 7 1 0
BITMAP
D8
90
88
88
88
88
70
ENDCHAR
STARTCHAR 028C
ENCODING 652
SWIDTH 466 0
DWIDTH 7 0
BBX 7 7 0 0
BITMAP
10
18
28
28
44
44
EE
ENDCHAR
STARTCHAR 0292
ENCODING 658
SWIDTH 466 0
DWIDTH 7 0
BBX 6 11 0 -4
BITMAP
7C
88
10
10
38
4C
04
04
04
48
F8
ENDCHAR
STARTCHAR 0294
ENCODING 660
SWIDTH 466 0
DWIDTH 7 0
BBX 5 12 1 0
BITMAP
70
88
88
08
10
10
20
20
20
20
20
70
ENDCHAR
STARTCHAR 02A0
ENCODING 672
SWIDTH 533 0
DWIDTH 8 0
BBX 9 15 1 -4
BITMAP
0380
0500
0400
0400
3C00
4400
8400
8400
8400
CC00
7400
0400
0400
0400
0E00
ENDCHAR
STARTCHAR 02BC
ENCODING 700
SWIDTH 200 0
DWIDTH 3 0
BBX 2 3 1 8
BITMAP
C0
40
80
ENDCHAR
STARTCHAR 02C0
ENCODING 704
SWIDTH 333 0
DWIDTH 5 0
BBX 4 6 0 6
BITMAP
70
90
10
20
20
20
ENDCHAR
STARTCHAR 02C6
ENCODING 710
SWIDTH 333 0
DWIDTH 5 0
BBX 5 3 0 8
BITMAP
20
50
88
ENDCHAR
STARTCHAR 02C7
ENCODING 711
SWIDTH 333 0
DWIDTH 5 0
BBX 5 3 0 8
BITMAP
88
50
20
ENDCHAR
STARTCHAR 02C9
ENCODING 713
SWIDTH 466 0
DWIDTH 7 0
BBX 5 1 1 8
BITMAP
F8
ENDCHAR
STARTCHAR 02CA
ENCODING 714
SWIDTH 200 0
DWIDTH 3 0
BBX 3 3 0 8
BITMAP
60
40
80
ENDCHAR
STARTCHAR 02CB
ENCODING 715
SWIDTH 200 0
DWIDTH 3 0
BBX 3 3 0 8
BITMAP
C0
40
20
ENDCHAR
STARTCHAR 02CD
ENCODING 717
SWIDTH 466 0
DWIDTH 7 0
BBX 5 1 1 -2
BITMAP
F8
ENDCHAR
STARTCHAR 02D7
ENCODING 727
SWIDTH 333 0
DWIDTH 5 0
BBX 5 1 0 3
BITMAP
F8
ENDCHAR
STARTCHAR 02D8
ENCODING 728
SWIDTH 333 0
DWIDTH 5 0
BBX 5 2 0 8
BITMAP
88
70
ENDCHAR
STARTCHAR 02D9
ENCODING 729
SWIDTH 200 0
DWIDTH 3 0
BBX 1 2 1 8
BITMAP
80
80
ENDCHAR
STARTCHAR 02DA
ENCODING 730
SWIDTH 266 0
DWIDTH 4 0
BBX 2 4 1 7
BITMAP
C0
C0
C0
C0
ENDCHAR
STARTCHAR 02DB
ENCODING 731
SWIDTH 266 0
DWIDTH 4 0
BBX 3 3 1 -3
BITMAP
40
C0
E0
ENDCHAR
STARTCHAR 02DC
ENCODING 732
SWIDTH 400 0
DWIDTH 6 0
BBX 5 2 1 8
BITMAP
D8
B0
ENDCHAR
STARTCHAR 02DD
ENCODING 733
SWIDTH 400 0
DWIDTH 6 0
BBX 4 3 1 8
BITMAP
50
A0
A0
ENDCHAR
STARTCHAR 0300
ENCODING 768
SWIDTH 0 0
DWIDTH 0 0
BBX 3 3 -5 8
BITMAP
80
40
60
ENDCHAR
STARTCHAR 0301
ENCODING 769
SWIDTH 0 0
DWIDTH 0 0
BBX 3 3 -5 8
BITMAP
20
40
80
ENDCHAR
STARTCHAR 0302
ENCODING 770
SWIDTH 0 0
DWIDTH 0 0
BBX 5 3 -6 8
BITMAP
60
50
98
ENDCHAR
STARTCHAR 0303
ENCODING 771
SWIDTH 0 0
DWIDTH 0 0
BBX 5 2 -6 8
BITMAP
48
B0
ENDCHAR
STARTCHAR 0304
ENCODING 772
SWIDTH 0 0
DWIDTH 0 0
BBX 5 1 -6 8
BITMAP
F8
ENDCHAR
STARTCHAR 0306
ENCODING 774
SWIDTH 0 0
DWIDTH 0 0
BBX 5 2 -6 8
BITMAP
98
70
ENDCHAR
STARTCHAR 0307
ENCODING 775
SWIDTH 0 0
DWIDTH 0 0
BBX 1 2 -4 8
BITMAP
80
80
ENDCHAR
STARTCHAR 0308
ENCODING 776
SWIDTH 0 0
DWIDTH 0 0
BBX 4 2 -6 8
BITMAP
90
90
ENDCHAR
STARTCHAR 0309
ENCODING 777
SWIDTH 0 0
DWIDTH 0 0
BBX 2 3 -5 8
BITMAP
40
C0
80
ENDCHAR
STARTCHAR 030A
ENCODING 778
SWIDTH 0 0
DWIDTH 0 0
BBX 3 4 -5 7
BITMAP
60
A0
A0
C0
ENDCHAR
STARTCHAR 030B
ENCODING 779
SWIDTH 0 0
DWIDTH 0 0
BBX 4 3 -5 8
BITMAP
50
A0
A0
ENDCHAR
STARTCHAR 030C
ENCODING 780
SWIDTH 0 0
DWIDTH 0 0
BBX 5 3 -6 8
BITMAP
98
50
60
ENDCHAR
STARTCHAR 031B
ENCODING 795
SWIDTH 66 0
DWIDTH 1 0
BBX 2 3 -2 5
BITMAP
40
40
80
ENDCHAR
STARTCHAR 0323
ENCODING 803
SWIDTH 0 0
DWIDTH 0 0
BBX 1 2 -4 -3
BITMAP
80
80
ENDCHAR
STARTCHAR 0327
ENCODING 807
SWIDTH 0 0
DWIDTH 0 0
BBX 2 3 -5 -3
BITMAP
80
40
C0
ENDCHAR
STARTCHAR 0328
ENCODING 808
SWIDTH 0 0
DWIDTH 0 0
BBX 3 3 -5 -3
BITMAP
40
C0
E0
ENDCHAR
STARTCHAR 0331
ENCODING 817
SWIDTH 0 0
DWIDTH 0 0
BBX 5 1 -6 -2
BITMAP
F8
ENDCHAR
STARTCHAR 033F
ENCODING 831
SWIDTH 0 0
DWIDTH 0 0
BBX 8 4 -8 8
BITMAP
7F
80
00
FF
ENDCHAR
STARTCHAR 035E
ENCODING 862
SWIDTH 0 0
DWIDTH 0 0
BBX 10 1 -5 12
BITMAP
FFC0
ENDCHAR
STARTCHAR 035F
ENCODING 863
SWIDTH 0 0
DWIDTH 0 0
BBX 10 1 -5 -5
BITMAP
FFC0
ENDCHAR
STARTCHAR 03A0
ENCODING 928
SWIDTH 600 0
DWIDTH 9 0
BBX 8 9 0 0
BITMAP
FF
42
42
42
42
42
42
42
E7
ENDCHAR
STARTCHAR 03A9
ENCODING 937
SWIDTH 666 0
DWIDTH 10 0
BBX 8 9 1 0
BITMAP
3C
42
81
81
81
81
82
C5
E7
ENDCHAR
STARTCHAR 03C0
ENCODING 960
SWIDTH 533 0
DWIDTH 8 0
BBX 8 7 0 0
BITMAP
7F
A4
24
24
24
64
63
ENDCHAR
STARTCHAR 1E02
ENCODING 7682
SWIDTH 533 0
DWIDTH 8 0
BBX 7 11 1 0
BITMAP
20
20
F8
44
44
7C
46
42
42
42
FC
ENDCHAR
STARTCHAR 1E03
ENCODING 7683
SWIDTH 533 0
DWIDTH 8 0
BBX 7 11 0 0
BITMAP
C0
48
48
40
5C
62
42
42
42
44
38
ENDCHAR
STARTCHAR 1E04
ENCODING 7684
SWIDTH 533 0
DWIDTH 8 0
BBX 7 12 1 -3
BITMAP
F8
44
44
7C
46
42
42
42
7C
80
20
20
ENDCHAR
STARTCHAR 1E05
ENCODING 7685
SWIDTH 533 0
DWIDTH 8 0
BBX 7 14 0 -3
BITMAP
C0
40
40
40
5C
62
42
42
42
44
38
00
10
10
ENDCHAR
STARTCHAR 1E06
ENCODING 7686
SWIDTH 533 0
DWIDTH 8 0
BBX 7 11 1 -2
BITMAP
F8
44
44
7C
46
42
42
42
7C
80
F8
ENDCHAR
STARTCHAR 1E07
ENCODING 7687
SWIDTH 533 0
DWIDTH 8 0
BBX 7 13 0 -2
BITMAP
C0
40
40
40
5C
62
42
42
42
44
38
00
7C
ENDCHAR
STARTCHAR 1E08
ENCODING 7688
SWIDTH 533 0
DWIDTH 8 0
BBX 6 16 1 -3
BITMAP
0C
18
20
00
3C
44
80
80
80
80
80
44
38
20
10
30
ENDCHAR
STARTCHAR 1E09
ENCODING 7689
SWIDTH 466 0
DWIDTH 7 0
BBX 5 14 1 -3
BITMAP
18
10
20
00
78
88
80
80
80
C8
70
20
10
30
ENDCHAR
STARTCHAR 1E0A
ENCODING 7690
SWIDTH 600 0
DWIDTH 9 0
BBX 8 11 0 0
BITMAP
08
10
FC
42
41
41
41
41
41
42
FC
ENDCHAR
STARTCHAR 1E0B
ENCODING 7691
SWIDTH 533 0
DWIDTH 8 0
BBX 7 11 1 0
BITMAP
0C
44
44
04
3C
C4
84
84
84
CC
76
ENDCHAR
STARTCHAR 1E0C
ENCODING 7692
SWIDTH 600 0
DWIDTH 9 0
BBX 8 12 0 -3
BITMAP
FC
42
41
41
41
41
41
42
7C
80
08
10
ENDCHAR
STARTCHAR 1E0D
ENCODING 7693
SWIDTH 533 0
DWIDTH 8 0
BBX 7 14 1 -3
BITMAP
0C
04
04
04
3C
C4
84
84
84
CC
76
00
20
20
ENDCHAR
STARTCHAR 1E0E
ENCODING 7694
SWIDTH 600 0
DWIDTH 9 0
BBX 8 11 0 -2
BITMAP
FC
42
41
41
41
41
41
42
7C
80
3E
ENDCHAR
STARTCHAR 1E0F
ENCODING 7695
SWIDTH 533 0
DWIDTH 8 0
BBX 7 13 1 -2
BITMAP
0C
04
04
04
3C
C4
84
84
84
CC
76
00
F8
ENDCHAR
STARTCHAR 1E14
ENCODING 7700
SWIDTH 466 0
DWIDTH 7 0
BBX 6 15 1 0
BITMAP
80
60
10
00
F8
00
FC
44
40
78
40
40
40
44
FC
ENDCHAR
STARTCHAR 1E15
ENCODING 7701
SWIDTH 466 0
DWIDTH 7 0
BBX 5 14 1 0
BITMAP
40
60
20
10
00
F8
00
70
48
88
F8
80
C8
70
ENDCHAR
STARTCHAR 1E16
ENCODING 7702
SWIDTH 466 0
DWIDTH 7 0
BBX 6 15 1 0
BITMAP
08
30
40
00
F8
00
FC
44
40
78
40
40
40
44
FC
ENDCHAR
STARTCHAR 1E17
ENCODING 7703
SWIDTH 466 0
DWIDTH 7 0
BBX 5 14 1 0
BITMAP
08
10
20
00
00
F8
00
70
48
88
F8
80
C8
70
ENDCHAR
STARTCHAR 1E1C
ENCODING 7708
SWIDTH 466 0
DWIDTH 7 0
BBX 6 16 0 -3
BITMAP
44
24
38
00
FC
44
40
78
40
40
40
44
7C
A0
10
20
ENDCHAR
STARTCHAR 1E1D
ENCODING 7709
SWIDTH 466 0
DWIDTH 7 0
BBX 5 13 1 -3
BITMAP
88
70
00
70
48
88
F8
80
C8
70
20
10
30
ENDCHAR
STARTCHAR 1E1E
ENCODING 7710
SWIDTH 466 0
DWIDTH 7 0
BBX 6 11 1 0
BITMAP
20
20
FC
44
40
78
40
40
40
40
E0
ENDCHAR
STARTCHAR 1E1F
ENCODING 7711
SWIDTH 333 0
DWIDTH 5 0
BBX 5 13 1 0
BITMAP
20
40
18
68
40
40
F0
40
40
40
40
40
F0
ENDCHAR
STARTCHAR 1E20
ENCODING 7712
SWIDTH 600 0
DWIDTH 9 0
BBX 8 11 1 0
BITMAP
7C
00
1E
64
80
80
8F
82
82
42
3C
ENDCHAR
STARTCHAR 1E21
ENCODING 7713
SWIDTH 466 0
DWIDTH 7 0
BBX 7 13 0 -4
BITMAP
7C
00
7E
84
84
C4
78
60
78
46
82
86
78
ENDCHAR
STARTCHAR 1E22
ENCODING 7714
SWIDTH 666 0
DWIDTH 10 0
BBX 9 11 0 0
BITMAP
0800
0800
E380
4100
4100
4100
7F00
4100
4100
4100
E380
ENDCHAR
STARTCHAR 1E23
ENCODING 7715
SWIDTH 533 0
DWIDTH 8 0
BBX 8 13 0 0
BITMAP
08
08
C0
40
40
40
4E
72
42
42
42
42
E7
ENDCHAR
STARTCHAR 1E24
ENCODING 7716
SWIDTH 666 0
DWIDTH 10 0
BBX 9 12 0 -3
BITMAP
E380
4100
4100
4100
7F00
4100
4100
4100
4100
A280
0800
0800
ENDCHAR
STARTCHAR 1E25
ENCODING 7717
SWIDTH 533 0
DWIDTH 8 0
BBX 8 14 0 -3
BITMAP
C0
40
40
40
4E
72
42
42
42
42
42
A5
08
08
ENDCHAR
STARTCHAR 1E26
ENCODING 7718
SWIDTH 666 0
DWIDTH 10 0
BBX 9 11 0 0
BITMAP
2200
2400
C380
4100
4100
4100
7F00
4100
4100
4100
E380
ENDCHAR
STARTCHAR 1E27
ENCODING 7719
SWIDTH 533 0
DWIDTH 8 0
BBX 8 13 0 0
BITMAP
24
24
C0
40
40
40
4E
72
42
42
42
42
E7
ENDCHAR
STARTCHAR 1E2E
ENCODING 7726
SWIDTH 266 0
DWIDTH 4 0
BBX 5 15 0 0
BITMAP
10
28
40
00
90
90
60
20
20
20
20
20
20
20
70
ENDCHAR
STARTCHAR 1E2F
ENCODING 7727
SWIDTH 266 0
DWIDTH 4 0
BBX 4 14 0 0
BITMAP
10
30
20
40
90
90
00
60
20
20
20
20
20
70
ENDCHAR
STARTCHAR 1E30
ENCODING 7728
SWIDTH 600 0
DWIDTH 9 0
BBX 8 12 1 0
BITMAP
1C
20
00
EF
44
48
50
60
50
48
44
E7
ENDCHAR
STARTCHAR 1E31
ENCODING 7729
SWIDTH 533 0
DWIDTH 8 0
BBX 7 14 0 0
BITMAP
0C
10
00
C0
40
40
40
4E
48
70
70
50
48
E6
ENDCHAR
STARTCHAR 1E32
ENCODING 7730
SWIDTH 600 0
DWIDTH 9 0
BBX 8 12 1 -3
BITMAP
EF
44
48
50
60
50
48
44
47
A0
10
10
ENDCHAR
STARTCHAR 1E33
ENCODING 7731
SWIDTH 533 0
DWIDTH 8 0
BBX 7 14 0 -3
BITMAP
C0
40
40
40
4E
48
70
70
50
48
46
A0
10
10
ENDCHAR
STARTCHAR 1E34
ENCODING 7732
SWIDTH 600 0
DWIDTH 9 0
BBX 8 11 1 -2
BITMAP
EF
44
48
50
60
50
48
44
47
A0
7C
ENDCHAR
STARTCHAR 1E35
ENCODING 7733
SWIDTH 533 0
DWIDTH 8 0
BBX 7 13 0 -2
BITMAP
C0
40
40
40
4E
48
70
70
50
48
46
A0
7C
ENDCHAR
STARTCHAR 1E36
ENCODING 7734
SWIDTH 466 0
DWIDTH 7 0
BBX 6 12 1 -3
BITMAP
E0
40
40
40
40
40
40
44
7C
80
20
20
ENDCHAR
STARTCHAR 1E37
ENCODING 7735
SWIDTH 266 0
DWIDTH 4 0
BBX 3 14 1 -3
BITMAP
C0
40
40
40
40
40
40
40
40
40
40
A0
40
40
ENDCHAR
STARTCHAR 1E38
ENCODING 7736
SWIDTH 466 0
DWIDTH 7 0
BBX 6 14 1 -3
BITMAP
F8
00
E0
40
40
40
40
40
40
44
7C
80
20
20
ENDCHAR
STARTCHAR 1E39
ENCODING 7737
SWIDTH 266 0
DWIDTH 4 0
BBX 5 17 0 -3
BITMAP
F8
00
00
60
20
20
20
20
20
20
20
20
20
20
50
20
20
ENDCHAR
STARTCHAR 1E3A
ENCODING 7738
SWIDTH 466 0
DWIDTH 7 0
BBX 6 11 1 -2
BITMAP
E0
40
40
40
40
40
40
44
7C
80
F8
ENDCHAR
STARTCHAR 1E3B
ENCODING 7739
SWIDTH 266 0
DWIDTH 4 0
BBX 5 13 0 -2
BITMAP
60
20
20
20
20
20
20
20
20
20
20
50
F8
ENDCHAR
STARTCHAR 1E3E
ENCODING 7742
SWIDTH 800 0
DWIDTH 12 0
BBX 12 12 0 0
BITMAP
0300
0C00
0000
6060
20C0
50C0
5140
4940
4940
4640
4640
E4F0
ENDCHAR
STARTCHAR 1E3F
ENCODING 7743
SWIDTH 800 0
DWIDTH 12 0
BBX 11 11 0 0
BITMAP
0100
0200
0400
0000
DDC0
6640
4440
4440
4440
4440
EEE0
ENDCHAR
STARTCHAR 1E40
ENCODING 7744
SWIDTH 800 0
DWIDTH 12 0
BBX 12 11 0 0
BITMAP
0400
0400
6060
20C0
50C0
5140
4940
4940
4640
4640
E4F0
ENDCHAR
STARTCHAR 1E41
ENCODING 7745
SWIDTH 800 0
DWIDTH 12 0
BBX 11 10 0 0
BITMAP
0200
0200
0000
DDC0
6640
4440
4440
4440
4440
EEE0
ENDCHAR
STARTCHAR 1E42
ENCODING 7746
SWIDTH 800 0
DWIDTH 12 0
BBX 12 12 0 -3
BITMAP
6060
20C0
50C0
5140
4940
4940
4640
4640
6460
8090
0400
0400
ENDCHAR
STARTCHAR 1E43
ENCODING 7747
SWIDTH 800 0
DWIDTH 12 0
BBX 11 10 0 -3
BITMAP
DDC0
6640
4440
4440
4440
4440
4440
AAA0
0200
0200
ENDCHAR
STARTCHAR 1E44
ENCODING 7748
SWIDTH 666 0
DWIDTH 10 0
BBX 10 11 0 0
BITMAP
0800
0800
C1C0
6080
5080
5880
4C80
4680
4380
4180
E080
ENDCHAR
STARTCHAR 1E45
ENCODING 7749
SWIDTH 533 0
DWIDTH 8 0
BBX 8 10 0 0
BITMAP
08
08
00
4E
F2
42
42
42
42
E7
ENDCHAR
STARTCHAR 1E46
ENCODING 7750
SWIDTH 666 0
DWIDTH 10 0
BBX 10 12 0 -3
BITMAP
C1C0
6080
5080
5880
4C80
4680
4380
4180
4080
A000
0800
0800
ENDCHAR
STARTCHAR 1E47
ENCODING 7751
SWIDTH 533 0
DWIDTH 8 0
BBX 8 10 0 -3
BITMAP
4E
F2
42
42
42
42
42
A5
08
08
ENDCHAR
STARTCHAR 1E48
ENCODING 7752
SWIDTH 666 0
DWIDTH 10 0
BBX 10 11 0 -2
BITMAP
C1C0
6080
5080
5880
4C80
4680
4380
4180
4080
A000
3E00
ENDCHAR
STARTCHAR 1E49
ENCODING 7753
SWIDTH 533 0
DWIDTH 8 0
BBX 8 9 0 -2
BITMAP
4E
F2
42
42
42
42
42
A5
3E
ENDCHAR
STARTCHAR 1E4C
ENCODING 7756
SWIDTH 600 0
DWIDTH 9 0
BBX 7 15 1 0
BITMAP
08
1C
20
34
78
00
38
44
82
82
82
82
82
44
38
ENDCHAR
STARTCHAR 1E4D
ENCODING 7757
SWIDTH 533 0
DWIDTH 8 0
BBX 6 14 1 0
BITMAP
08
10
20
00
68
98
00
38
CC
84
84
84
C8
70
ENDCHAR
STARTCHAR 1E4E
ENCODING 7758
SWIDTH 600 0
DWIDTH 9 0
BBX 7 14 1 0
BITMAP
48
48
34
78
00
38
44
82
82
82
82
82
44
38
ENDCHAR
STARTCHAR 1E4F
ENCODING 7759
SWIDTH 533 0
DWIDTH 8 0
BBX 6 13 1 0
BITMAP
88
88
00
68
98
00
38
CC
84
84
84
C8
70
ENDCHAR
STARTCHAR 1E50
ENCODING 7760
SWIDTH 600 0
DWIDTH 9 0
BBX 7 15 1 0
BITMAP
40
30
08
00
7C
00
38
44
82
82
82
82
82
44
38
ENDCHAR
STARTCHAR 1E51
ENCODING 7761
SWIDTH 533 0
DWIDTH 8 0
BBX 6 14 1 0
BITMAP
40
60
20
10
00
78
00
38
CC
84
84
84
C8
70
ENDCHAR
STARTCHAR 1E52
ENCODING 7762
SWIDTH 600 0
DWIDTH 9 0
BBX 7 15 1 0
BITMAP
08
1C
20
00
7C
00
38
44
82
82
82
82
82
44
38
ENDCHAR
STARTCHAR 1E53
ENCODING 7763
SWIDTH 533 0
DWIDTH 8 0
BBX 6 14 1 0
BITMAP
08
10
20
00
00
78
00
38
CC
84
84
84
C8
70
ENDCHAR
STARTCHAR 1E54
ENCODING 7764
SWIDTH 533 0
DWIDTH 8 0
BBX 7 12 0 0
BITMAP
0C
30
00
FC
42
42
42
5C
60
40
40
E0
ENDCHAR
STARTCHAR 1E55
ENCODING 7765
SWIDTH 533 0
DWIDTH 8 0
BBX 7 15 0 -4
BITMAP
04
08
10
00
5C
E6
42
42
42
44
78
40
40
40
E0
ENDCHAR
STARTCHAR 1E56
ENCODING 7766
SWIDTH 533 0
DWIDTH 8 0
BBX 7 11 0 0
BITMAP
10
10
FC
42
42
42
5C
60
40
40
E0
ENDCHAR
STARTCHAR 1E57
ENCODING 7767
SWIDTH 533 0
DWIDTH 8 0
BBX 7 14 0 -4
BITMAP
10
10
00
5C
E6
42
42
42
44
78
40
40
40
E0
ENDCHAR
STARTCHAR 1E58
ENCODING 7768
SWIDTH 533 0
DWIDTH 8 0
BBX 8 11 0 0
BITMAP
10
10
F8
44
44
44
58
68
48
44
E7
ENDCHAR
STARTCHAR 1E59
ENCODING 7769
SWIDTH 400 0
DWIDTH 6 0
BBX 5 10 0 0
BITMAP
10
10
00
D8
68
40
40
40
40
E0
ENDCHAR
STARTCHAR 1E5A
ENCODING 7770
SWIDTH 533 0
DWIDTH 8 0
BBX 8 12 0 -3
BITMAP
F8
44
44
44
58
68
48
44
47
A0
10
10
ENDCHAR
STARTCHAR 1E5B
ENCODING 7771
SWIDTH 400 0
DWIDTH 6 0
BBX 5 10 0 -3
BITMAP
D8
68
40
40
40
40
40
A0
40
60
ENDCHAR
STARTCHAR 1E5C
ENCODING 7772
SWIDTH 533 0
DWIDTH 8 0
BBX 8 14 0 -3
BITMAP
7C
00
F8
44
44
44
58
68
48
44
47
A0
10
10
ENDCHAR
STARTCHAR 1E5D
ENCODING 7773
SWIDTH 400 0
DWIDTH 6 0
BBX 6 12 0 -3
BITMAP
7C
00
D8
68
40
40
40
40
40
A0
40
60
ENDCHAR
STARTCHAR 1E5E
ENCODING 7774
SWIDTH 533 0
DWIDTH 8 0
BBX 8 11 0 -2
BITMAP
F8
44
44
44
58
68
48
44
47
A0
7C
ENDCHAR
STARTCHAR 1E5F
ENCODING 7775
SWIDTH 400 0
DWIDTH 6 0
BBX 5 9 0 -2
BITMAP
D8
68
40
40
40
40
40
A0
F0
ENDCHAR
STARTCHAR 1E60
ENCODING 7776
SWIDTH 466 0
DWIDTH 7 0
BBX 5 11 1 0
BITMAP
20
20
70
98
80
40
30
08
88
88
F0
ENDCHAR
STARTCHAR 1E61
ENCODING 7777
SWIDTH 400 0
DWIDTH 6 0
BBX 4 10 1 0
BITMAP
40
40
00
60
B0
80
60
10
90
E0
ENDCHAR
STARTCHAR 1E62
ENCODING 7778
SWIDTH 466 0
DWIDTH 7 0
BBX 5 12 1 -3
BITMAP
70
98
80
40
30
08
88
88
F0
00
20
20
ENDCHAR
STARTCHAR 1E63
ENCODING 7779
SWIDTH 400 0
DWIDTH 6 0
BBX 4 10 1 -3
BITMAP
60
B0
80
60
10
90
E0
00
40
40
ENDCHAR
STARTCHAR 1E64
ENCODING 7780
SWIDTH 466 0
DWIDTH 7 0
BBX 5 14 1 0
BITMAP
20
20
18
60
00
70
98
80
40
30
08
88
88
F0
ENDCHAR
STARTCHAR 1E65
ENCODING 7781
SWIDTH 400 0
DWIDTH 6 0
BBX 4 13 1 0
BITMAP
40
40
10
20
40
00
60
B0
80
60
10
90
E0
ENDCHAR
STARTCHAR 1E66
ENCODING 7782
SWIDTH 466 0
DWIDTH 7 0
BBX 5 14 1 0
BITMAP
20
20
D8
20
00
70
98
80
40
30
08
88
88
F0
ENDCHAR
STARTCHAR 1E67
ENCODING 7783
SWIDTH 400 0
DWIDTH 6 0
BBX 4 12 1 0
BITMAP
40
D0
E0
60
00
60
B0
80
60
10
90
E0
ENDCHAR
STARTCHAR 1E68
ENCODING 7784
SWIDTH 466 0
DWIDTH 7 0
BBX 5 14 1 -3
BITMAP
20
20
70
98
80
40
30
08
88
88
F0
00
20
20
ENDCHAR
STARTCHAR 1E69
ENCODING 7785
SWIDTH 400 0
DWIDTH 6 0
BBX 4 13 1 -3
BITMAP
40
40
00
60
B0
80
60
10
90
E0
00
40
40
ENDCHAR
STARTCHAR 1E6A
ENCODING 7786
SWIDTH 533 0
DWIDTH 8 0
BBX 7 11 1 0
BITMAP
10
20
FE
92
10
10
10
10
10
10
38
ENDCHAR
STARTCHAR 1E6B
ENCODING 7787
SWIDTH 333 0
DWIDTH 5 0
BBX 5 12 0 0
BITMAP
20
20
00
40
40
F8
40
40
40
40
40
78
ENDCHAR
STARTCHAR 1E6C
ENCODING 7788
SWIDTH 533 0
DWIDTH 8 0
BBX 7 12 1 -3
BITMAP
FE
92
10
10
10
10
10
10
10
28
10
20
ENDCHAR
STARTCHAR 1E6D
ENCODING 7789
SWIDTH 333 0
DWIDTH 5 0
BBX 5 12 0 -3
BITMAP
40
40
F8
40
40
40
40
40
78
00
20
20
ENDCHAR
STARTCHAR 1E6E
ENCODING 7790
SWIDTH 533 0
DWIDTH 8 0
BBX 7 11 1 -2
BITMAP
FE
92
10
10
10
10
10
10
10
28
78
ENDCHAR
STARTCHAR 1E6F
ENCODING 7791
SWIDTH 333 0
DWIDTH 5 0
BBX 5 11 0 -2
BITMAP
40
40
F8
40
40
40
40
40
78
00
F8
ENDCHAR
STARTCHAR 1E78
ENCODING 7800
SWIDTH 666 0
DWIDTH 10 0
BBX 9 15 0 0
BITMAP
0200
0400
0800
1A00
3C00
0000
E380
4100
4100
4100
4100
4100
4100
6200
3C00
ENDCHAR
STARTCHAR 1E79
ENCODING 7801
SWIDTH 533 0
DWIDTH 8 0
BBX 8 14 0 0
BITMAP
04
08
08
10
34
4C
00
C6
42
42
42
42
46
3B
ENDCHAR
STARTCHAR 1E7A
ENCODING 7802
SWIDTH 666 0
DWIDTH 10 0
BBX 9 14 0 0
BITMAP
2200
2200
0000
1F00
0000
E380
4100
4100
4100
4100
4100
4100
6200
3C00
ENDCHAR
STARTCHAR 1E7B
ENCODING 7803
SWIDTH 533 0
DWIDTH 8 0
BBX 8 13 0 0
BITMAP
44
24
00
00
3E
00
C6
42
42
42
42
46
3B
ENDCHAR
STARTCHAR 1E7C
ENCODING 7804
SWIDTH 666 0
DWIDTH 10 0
BBX 9 12 0 0
BITMAP
1A00
3C00
0000
E380
6100
2100
2200
1200
1200
1C00
0C00
0800
ENDCHAR
STARTCHAR 1E7D
ENCODING 7805
SWIDTH 466 0
DWIDTH 7 0
BBX 7 10 0 0
BITMAP
34
4C
00
E6
44
24
28
38
18
10
ENDCHAR
STARTCHAR 1E7E
ENCODING 7806
SWIDTH 666 0
DWIDTH 10 0
BBX 9 12 0 -3
BITMAP
E380
6100
2100
2200
1200
1200
1C00
0C00
0800
0000
0800
0800
ENDCHAR
STARTCHAR 1E7F
ENCODING 7807
SWIDTH 466 0
DWIDTH 7 0
BBX 7 10 0 -3
BITMAP
E6
44
24
28
38
18
10
00
10
10
ENDCHAR
STARTCHAR 1E80
ENCODING 7808
SWIDTH 866 0
DWIDTH 13 0
BBX 12 12 0 0
BITMAP
0C00
0300
0000
E270
4220
2620
2520
2920
29C0
38C0
10C0
10C0
ENDCHAR
STARTCHAR 1E81
ENCODING 7809
SWIDTH 733 0
DWIDTH 11 0
BBX 10 11 0 0
BITMAP
1800
0C00
0400
0000
E4C0
4480
6E80
2A80
3280
3100
1100
ENDCHAR
STARTCHAR 1E82
ENCODING 7810
SWIDTH 866 0
DWIDTH 13 0
BBX 12 12 0 0
BITMAP
0380
0400
0000
E270
4220
2620
2520
2920
29C0
38C0
10C0
10C0
ENDCHAR
STARTCHAR 1E83
ENCODING 7811
SWIDTH 733 0
DWIDTH 11 0
BBX 10 11 0 0
BITMAP
0300
0200
0400
0000
E4C0
4480
6E80
2A80
3280
3100
1100
ENDCHAR
STARTCHAR 1E84
ENCODING 7812
SWIDTH 866 0
DWIDTH 13 0
BBX 12 11 0 0
BITMAP
0900
1100
E270
4220
2620
2520
2920
29C0
38C0
10C0
10C0
ENDCHAR
STARTCHAR 1E85
ENCODING 7813
SWIDTH 733 0
DWIDTH 11 0
BBX 10 10 0 0
BITMAP
1200
1200
0000
E4C0
4480
6E80
2A80
3280
3100
1100
ENDCHAR
STARTCHAR 1E86
ENCODING 7814
SWIDTH 866 0
DWIDTH 13 0
BBX 12 11 0 0
BITMAP
0200
0400
E270
4220
2620
2520
2920
29C0
38C0
10C0
10C0
ENDCHAR
STARTCHAR 1E87
ENCODING 7815
SWIDTH 733 0
DWIDTH 11 0
BBX 10 10 0 0
BITMAP
0400
0400
0000
E4C0
4480
6E80
2A80
3280
3100
1100
ENDCHAR
STARTCHAR 1E88
ENCODING 7816
SWIDTH 866 0
DWIDTH 13 0
BBX 12 12 0 -3
BITMAP
E270
4220
2620
2520
2920
29C0
38C0
10C0
10C0
0000
0200
0200
ENDCHAR
STARTCHAR 1E89
ENCODING 7817
SWIDTH 733 0
DWIDTH 11 0
BBX 10 10 0 -3
BITMAP
E4C0
4480
6E80
2A80
3280
3100
1100
0000
0400
0400
ENDCHAR
STARTCHAR 1E8A
ENCODING 7818
SWIDTH 600 0
DWIDTH 9 0
BBX 9 11 0 0
BITMAP
0800
0800
F780
6200
3600
1C00
0800
1400
2200
2300
F380
ENDCHAR
STARTCHAR 1E8B
ENCODING 7819
SWIDTH 533 0
DWIDTH 8 0
BBX 7 10 0 0
BITMAP
10
10
00
EE
64
38
18
28
44
EE
ENDCHAR
STARTCHAR 1E8C
ENCODING 7820
SWIDTH 600 0
DWIDTH 9 0
BBX 9 11 0 0
BITMAP
2400
2400
F780
6200
3600
1C00
0800
1400
2200
2300
F380
ENDCHAR
STARTCHAR 1E8D
ENCODING 7821
SWIDTH 533 0
DWIDTH 8 0
BBX 7 10 0 0
BITMAP
44
48
00
EE
64
38
18
28
44
EE
ENDCHAR
STARTCHAR 1E8E
ENCODING 7822
SWIDTH 600 0
DWIDTH 9 0
BBX 9 11 0 0
BITMAP
0800
0800
E380
6200
3200
1400
1C00
0800
0800
0800
1C00
ENDCHAR
STARTCHAR 1E8F
ENCODING 7823
SWIDTH 466 0
DWIDTH 7 0
BBX 7 14 0 -4
BITMAP
10
10
00
E6
44
24
24
28
18
10
10
10
20
C0
ENDCHAR
STARTCHAR 1E90
ENCODING 7824
SWIDTH 533 0
DWIDTH 8 0
BBX 7 12 0 0
BITMAP
18
64
00
7E
44
04
08
10
10
22
42
FE
ENDCHAR
STARTCHAR 1E91
ENCODING 7825
SWIDTH 466 0
DWIDTH 7 0
BBX 5 11 1 0
BITMAP
20
50
88
00
F8
90
20
20
40
88
F8
ENDCHAR
STARTCHAR 1E92
ENCODING 7826
SWIDTH 533 0
DWIDTH 8 0
BBX 7 12 0 -3
BITMAP
7E
44
04
08
10
10
22
42
7E
80
10
10
ENDCHAR
STARTCHAR 1E93
ENCODING 7827
SWIDTH 466 0
DWIDTH 7 0
BBX 5 10 1 -3
BITMAP
F8
90
20
20
40
88
F8
00
20
20
ENDCHAR
STARTCHAR 1E94
ENCODING 7828
SWIDTH 533 0
DWIDTH 8 0
BBX 7 11 0 -2
BITMAP
7E
44
04
08
10
10
22
42
7E
80
7C
ENDCHAR
STARTCHAR 1E95
ENCODING 7829
SWIDTH 466 0
DWIDTH 7 0
BBX 5 9 1 -2
BITMAP
F8
90
20
20
40
88
F8
00
F8
ENDCHAR
STARTCHAR 1E96
ENCODING 7830
SWIDTH 533 0
DWIDTH 8 0
BBX 8 13 0 -2
BITMAP
C0
40
40
40
4E
72
42
42
42
42
42
A5
3E
ENDCHAR
STARTCHAR 1E97
ENCODING 7831
SWIDTH 333 0
DWIDTH 5 0
BBX 5 12 0 0
BITMAP
90
90
00
40
40
F8
40
40
40
40
40
78
ENDCHAR
STARTCHAR 1E98
ENCODING 7832
SWIDTH 733 0
DWIDTH 11 0
BBX 10 11 0 0
BITMAP
0600
0A00
0A00
0600
E4C0
4480
6E80
2A80
3280
3100
1100
ENDCHAR
STARTCHAR 1E99
ENCODING 7833
SWIDTH 466 0
DWIDTH 7 0
BBX 7 15 0 -4
BITMAP
18
14
24
18
E6
44
24
24
28
18
10
10
10
20
C0
ENDCHAR
STARTCHAR 1EA0
ENCODING 7840
SWIDTH 600 0
DWIDTH 9 0
BBX 9 12 0 -3
BITMAP
0800
0800
1400
1400
2400
3E00
2200
4300
4100
A280
0800
0800
ENDCHAR
STARTCHAR 1EA1
ENCODING 7841
SWIDTH 466 0
DWIDTH 7 0
BBX 6 10 1 -3
BITMAP
38
48
88
38
C8
88
FC
00
20
20
ENDCHAR
STARTCHAR 1EA2
ENCODING 7842
SWIDTH 600 0
DWIDTH 9 0
BBX 9 13 0 0
BITMAP
0800
1800
1800
0000
0800
0800
1400
1400
2400
3E00
2200
4300
E380
ENDCHAR
STARTCHAR 1EA3
ENCODING 7843
SWIDTH 466 0
DWIDTH 7 0
BBX 6 11 1 0
BITMAP
20
60
40
20
38
48
88
38
C8
88
FC
ENDCHAR
STARTCHAR 1EA4
ENCODING 7844
SWIDTH 600 0
DWIDTH 9 0
BBX 9 15 0 0
BITMAP
0600
1800
0000
1C00
2200
0000
0800
0800
1400
1400
2400
3E00
2200
4300
E380
ENDCHAR
STARTCHAR 1EA5
ENCODING 7845
SWIDTH 466 0
DWIDTH 7 0
BBX 6 14 1 0
BITMAP
18
20
40
20
50
88
00
38
48
88
38
C8
88
FC
ENDCHAR
STARTCHAR 1EA6
ENCODING 7846
SWIDTH 600 0
DWIDTH 9 0
BBX 9 15 0 0
BITMAP
3000
0C00
0000
1C00
2200
0000
0800
0800
1400
1400
2400
3E00
2200
4300
E380
ENDCHAR
STARTCHAR 1EA7
ENCODING 7847
SWIDTH 466 0
DWIDTH 7 0
BBX 6 14 1 0
BITMAP
C0
20
20
20
50
88
00
38
48
88
38
C8
88
FC
ENDCHAR
STARTCHAR 1EA8
ENCODING 7848
SWIDTH 600 0
DWIDTH 9 0
BBX 9 16 0 0
BITMAP
0800
1800
1000
0800
1C00
2200
0000
0800
0800
1400
1400
2400
3E00
2200
4300
E380
ENDCHAR
STARTCHAR 1EA9
ENCODING 7849
SWIDTH 466 0
DWIDTH 7 0
BBX 6 14 1 0
BITMAP
20
60
60
20
50
88
00
38
48
88
38
C8
88
FC
ENDCHAR
STARTCHAR 1EAA
ENCODING 7850
SWIDTH 600 0
DWIDTH 9 0
BBX 9 15 0 0
BITMAP
3200
3C00
0000
1C00
2200
0000
0800
0800
1400
1400
2400
3E00
2200
4300
E380
ENDCHAR
STARTCHAR 1EAB
ENCODING 7851
SWIDTH 466 0
DWIDTH 7 0
BBX 6 13 1 0
BITMAP
68
90
20
50
88
00
38
48
88
38
C8
88
FC
ENDCHAR
STARTCHAR 1EAC
ENCODING 7852
SWIDTH 600 0
DWIDTH 9 0
BBX 9 15 0 -3
BITMAP
1C00
2200
0000
0800
0800
1400
1400
2400
3E00
2200
4300
4100
A280
0800
0800
ENDCHAR
STARTCHAR 1EAD
ENCODING 7853
SWIDTH 466 0
DWIDTH 7 0
BBX 6 14 1 -3
BITMAP
20
50
88
00
38
48
88
38
C8
88
FC
00
20
20
ENDCHAR
STARTCHAR 1EAE
ENCODING 7854
SWIDTH 600 0
DWIDTH 9 0
BBX 9 15 0 0
BITMAP
0400
0A00
1000
2600
1800
0000
0800
0800
1400
1400
2400
3E00
2200
4300
E380
ENDCHAR
STARTCHAR 1EAF
ENCODING 7855
SWIDTH 466 0
DWIDTH 7 0
BBX 6 13 1 0
BITMAP
18
20
40
88
70
00
38
48
88
38
C8
88
FC
ENDCHAR
STARTCHAR 1EB0
ENCODING 7856
SWIDTH 600 0
DWIDTH 9 0
BBX 9 15 0 0
BITMAP
2000
1800
0400
2600
1800
0000
0800
0800
1400
1400
2400
3E00
2200
4300
E380
ENDCHAR
STARTCHAR 1EB1
ENCODING 7857
SWIDTH 466 0
DWIDTH 7 0
BBX 6 13 1 0
BITMAP
C0
20
20
88
70
00
38
48
88
38
C8
88
FC
ENDCHAR
STARTCHAR 1EB2
ENCODING 7858
SWIDTH 600 0
DWIDTH 9 0
BBX 9 16 0 0
BITMAP
0800
1800
1000
0800
2600
1800
0000
0800
0800
1400
1400
2400
3E00
2200
4300
E380
ENDCHAR
STARTCHAR 1EB3
ENCODING 7859
SWIDTH 466 0
DWIDTH 7 0
BBX 6 13 1 0
BITMAP
20
60
60
88
70
00
38
48
88
38
C8
88
FC
ENDCHAR
STARTCHAR 1EB4
ENCODING 7860
SWIDTH 600 0
DWIDTH 9 0
BBX 9 15 0 0
BITMAP
3A00
4400
2200
3400
0800
0000
0800
0800
1400
1400
2400
3E00
2200
4300
E380
ENDCHAR
STARTCHAR 1EB5
ENCODING 7861
SWIDTH 466 0
DWIDTH 7 0
BBX 6 12 1 0
BITMAP
68
90
88
70
00
38
48
88
38
C8
88
FC
ENDCHAR
STARTCHAR 1EB6
ENCODING 7862
SWIDTH 600 0
DWIDTH 9 0
BBX 9 15 0 -3
BITMAP
2600
1800
0000
0800
0800
1400
1400
2400
3E00
2200
4300
4100
A280
0800
0800
ENDCHAR
STARTCHAR 1EB7
ENCODING 7863
SWIDTH 466 0
DWIDTH 7 0
BBX 6 13 1 -3
BITMAP
88
70
00
38
48
88
38
C8
88
FC
00
20
20
ENDCHAR
STARTCHAR 1EB8
ENCODING 7864
SWIDTH 466 0
DWIDTH 7 0
BBX 6 12 1 -3
BITMAP
FC
44
40
78
40
40
40
44
7C
80
20
20
ENDCHAR
STARTCHAR 1EB9
ENCODING 7865
SWIDTH 466 0
DWIDTH 7 0
BBX 5 10 1 -3
BITMAP
70
48
88
F8
80
C8
70
00
20
20
ENDCHAR
STARTCHAR 1EBA
ENCODING 7866
SWIDTH 466 0
DWIDTH 7 0
BBX 6 13 1 0
BITMAP
20
60
60
00
FC
44
40
78
40
40
40
44
FC
ENDCHAR
STARTCHAR 1EBB
ENCODING 7867
SWIDTH 466 0
DWIDTH 7 0
BBX 5 11 1 0
BITMAP
20
70
60
00
70
48
88
F8
80
C8
70
ENDCHAR
STARTCHAR 1EBC
ENCODING 7868
SWIDTH 466 0
DWIDTH 7 0
BBX 6 12 1 0
BITMAP
68
F0
00
FC
44
40
78
40
40
40
44
FC
ENDCHAR
STARTCHAR 1EBD
ENCODING 7869
SWIDTH 466 0
DWIDTH 7 0
BBX 5 10 1 0
BITMAP
68
90
00
70
48
88
F8
80
C8
70
ENDCHAR
STARTCHAR 1EBE
ENCODING 7870
SWIDTH 466 0
DWIDTH 7 0
BBX 6 15 1 0
BITMAP
18
60
00
70
88
00
FC
44
40
78
40
40
40
44
FC
ENDCHAR
STARTCHAR 1EBF
ENCODING 7871
SWIDTH 466 0
DWIDTH 7 0
BBX 5 14 1 0
BITMAP
18
10
20
20
50
88
00
70
48
88
F8
80
C8
70
ENDCHAR
STARTCHAR 1EC0
ENCODING 7872
SWIDTH 466 0
DWIDTH 7 0
BBX 6 15 1 0
BITMAP
C0
30
00
70
88
00
FC
44
40
78
40
40
40
44
FC
ENDCHAR
STARTCHAR 1EC1
ENCODING 7873
SWIDTH 466 0
DWIDTH 7 0
BBX 5 14 1 0
BITMAP
40
20
10
20
50
88
00
70
48
88
F8
80
C8
70
ENDCHAR
STARTCHAR 1EC2
ENCODING 7874
SWIDTH 466 0
DWIDTH 7 0
BBX 6 16 1 0
BITMAP
20
60
60
00
70
88
00
FC
44
40
78
40
40
40
44
FC
ENDCHAR
STARTCHAR 1EC3
ENCODING 7875
SWIDTH 466 0
DWIDTH 7 0
BBX 5 14 1 0
BITMAP
30
20
60
20
50
88
00
70
48
88
F8
80
C8
70
ENDCHAR
STARTCHAR 1EC4
ENCODING 7876
SWIDTH 466 0
DWIDTH 7 0
BBX 6 15 1 0
BITMAP
68
F0
00
70
88
00
FC
44
40
78
40
40
40
44
FC
ENDCHAR
STARTCHAR 1EC5
ENCODING 7877
SWIDTH 466 0
DWIDTH 7 0
BBX 5 13 1 0
BITMAP
68
90
20
50
88
00
70
48
88
F8
80
C8
70
ENDCHAR
STARTCHAR 1EC6
ENCODING 7878
SWIDTH 466 0
DWIDTH 7 0
BBX 6 15 1 -3
BITMAP
70
88
00
FC
44
40
78
40
40
40
44
7C
80
20
20
ENDCHAR
STARTCHAR 1EC7
ENCODING 7879
SWIDTH 466 0
DWIDTH 7 0
BBX 5 14 1 -3
BITMAP
20
50
88
00
70
48
88
F8
80
C8
70
00
20
20
ENDCHAR
STARTCHAR 1EC8
ENCODING 7880
SWIDTH 266 0
DWIDTH 4 0
BBX 3 13 1 0
BITMAP
C0
80
80
00
E0
40
40
40
40
40
40
40
E0
ENDCHAR
STARTCHAR 1EC9
ENCODING 7881
SWIDTH 266 0
DWIDTH 4 0
BBX 3 11 1 0
BITMAP
C0
C0
80
00
C0
40
40
40
40
40
E0
ENDCHAR
STARTCHAR 1ECA
ENCODING 7882
SWIDTH 266 0
DWIDTH 4 0
BBX 3 12 1 -3
BITMAP
E0
40
40
40
40
40
40
40
40
A0
40
40
ENDCHAR
STARTCHAR 1ECB
ENCODING 7883
SWIDTH 266 0
DWIDTH 4 0
BBX 3 13 1 -3
BITMAP
40
40
00
C0
40
40
40
40
40
40
A0
40
40
ENDCHAR
STARTCHAR 1ECC
ENCODING 7884
SWIDTH 600 0
DWIDTH 9 0
BBX 7 12 1 -3
BITMAP
38
44
82
82
82
82
82
44
38
00
10
10
ENDCHAR
STARTCHAR 1ECD
ENCODING 7885
SWIDTH 533 0
DWIDTH 8 0
BBX 6 10 1 -3
BITMAP
38
CC
84
84
84
C8
70
00
20
20
ENDCHAR
STARTCHAR 1ECE
ENCODING 7886
SWIDTH 600 0
DWIDTH 9 0
BBX 7 13 1 0
BITMAP
10
30
30
00
38
44
82
82
82
82
82
44
38
ENDCHAR
STARTCHAR 1ECF
ENCODING 7887
SWIDTH 533 0
DWIDTH 8 0
BBX 6 11 1 0
BITMAP
30
60
20
00
38
CC
84
84
84
C8
70
ENDCHAR
STARTCHAR 1ED0
ENCODING 7888
SWIDTH 600 0
DWIDTH 9 0
BBX 7 15 1 0
BITMAP
0C
30
00
38
44
00
38
44
82
82
82
82
82
44
38
ENDCHAR
STARTCHAR 1ED1
ENCODING 7889
SWIDTH 533 0
DWIDTH 8 0
BBX 6 14 1 0
BITMAP
18
10
20
30
50
88
00
38
CC
84
84
84
C8
70
ENDCHAR
STARTCHAR 1ED2
ENCODING 7890
SWIDTH 600 0
DWIDTH 9 0
BBX 7 15 1 0
BITMAP
60
18
00
38
44
00
38
44
82
82
82
82
82
44
38
ENDCHAR
STARTCHAR 1ED3
ENCODING 7891
SWIDTH 533 0
DWIDTH 8 0
BBX 6 14 1 0
BITMAP
40
20
10
30
50
88
00
38
CC
84
84
84
C8
70
ENDCHAR
STARTCHAR 1ED4
ENCODING 7892
SWIDTH 600 0
DWIDTH 9 0
BBX 7 16 1 0
BITMAP
10
30
30
00
38
44
00
38
44
82
82
82
82
82
44
38
ENDCHAR
STARTCHAR 1ED5
ENCODING 7893
SWIDTH 533 0
DWIDTH 8 0
BBX 6 14 1 0
BITMAP
30
20
20
30
50
88
00
38
CC
84
84
84
C8
70
ENDCHAR
STARTCHAR 1ED6
ENCODING 7894
SWIDTH 600 0
DWIDTH 9 0
BBX 7 15 1 0
BITMAP
34
78
00
38
44
00
38
44
82
82
82
82
82
44
38
ENDCHAR
STARTCHAR 1ED7
ENCODING 7895
SWIDTH 533 0
DWIDTH 8 0
BBX 6 13 1 0
BITMAP
78
90
30
50
88
00
38
CC
84
84
84
C8
70
ENDCHAR
STARTCHAR 1ED8
ENCODING 7896
SWIDTH 600 0
DWIDTH 9 0
BBX 7 15 1 -3
BITMAP
38
44
00
38
44
82
82
82
82
82
44
38
00
10
10
ENDCHAR
STARTCHAR 1ED9
ENCODING 7897
SWIDTH 533 0
DWIDTH 8 0
BBX 6 14 1 -3
BITMAP
30
50
88
00
38
CC
84
84
84
C8
70
00
20
20
ENDCHAR
STARTCHAR 1EDA
ENCODING 7898
SWIDTH 600 0
DWIDTH 9 0
BBX 8 12 1 0
BITMAP
0C
33
01
3E
44
82
82
82
82
82
44
38
ENDCHAR
STARTCHAR 1EDB
ENCODING 7899
SWIDTH 533 0
DWIDTH 8 0
BBX 7 11 1 0
BITMAP
08
10
20
02
3A
CC
84
84
84
C8
70
ENDCHAR
STARTCHAR 1EDC
ENCODING 7900
SWIDTH 600 0
DWIDTH 9 0
BBX 8 12 1 0
BITMAP
60
1B
01
3E
44
82
82
82
82
82
44
38
ENDCHAR
STARTCHAR 1EDD
ENCODING 7901
SWIDTH 533 0
DWIDTH 8 0
BBX 7 11 1 0
BITMAP
40
20
10
02
3A
CC
84
84
84
C8
70
ENDCHAR
STARTCHAR 1EDE
ENCODING 7902
SWIDTH 600 0
DWIDTH 9 0
BBX 8 13 1 0
BITMAP
10
30
33
01
3E
44
82
82
82
82
82
44
38
ENDCHAR
STARTCHAR 1EDF
ENCODING 7903
SWIDTH 533 0
DWIDTH 8 0
BBX 7 11 1 0
BITMAP
30
60
20
02
3A
CC
84
84
84
C8
70
ENDCHAR
STARTCHAR 1EE0
ENCODING 7904
SWIDTH 600 0
DWIDTH 9 0
BBX 8 12 1 0
BITMAP
34
7B
01
3E
44
82
82
82
82
82
44
38
ENDCHAR
STARTCHAR 1EE1
ENCODING 7905
SWIDTH 533 0
DWIDTH 8 0
BBX 7 10 1 0
BITMAP
68
98
02
3A
CC
84
84
84
C8
70
ENDCHAR
STARTCHAR 1EE2
ENCODING 7906
SWIDTH 600 0
DWIDTH 9 0
BBX 8 14 1 -3
BITMAP
03
01
3E
44
82
82
82
82
82
44
38
00
10
10
ENDCHAR
STARTCHAR 1EE3
ENCODING 7907
SWIDTH 533 0
DWIDTH 8 0
BBX 7 11 1 -3
BITMAP
02
3A
CC
84
84
84
C8
70
00
20
20
ENDCHAR
STARTCHAR 1EE4
ENCODING 7908
SWIDTH 666 0
DWIDTH 10 0
BBX 9 12 0 -3
BITMAP
E380
4100
4100
4100
4100
4100
4100
6200
3C00
0000
0800
0800
ENDCHAR
STARTCHAR 1EE5
ENCODING 7909
SWIDTH 533 0
DWIDTH 8 0
BBX 8 10 0 -3
BITMAP
C6
42
42
42
42
46
3B
00
08
10
ENDCHAR
STARTCHAR 1EE6
ENCODING 7910
SWIDTH 666 0
DWIDTH 10 0
BBX 9 13 0 0
BITMAP
0C00
0800
0800
0000
E380
4100
4100
4100
4100
4100
4100
6200
3C00
ENDCHAR
STARTCHAR 1EE7
ENCODING 7911
SWIDTH 533 0
DWIDTH 8 0
BBX 8 11 0 0
BITMAP
18
28
10
00
C6
42
42
42
42
46
3B
ENDCHAR
STARTCHAR 1EE8
ENCODING 7912
SWIDTH 666 0
DWIDTH 10 0
BBX 10 12 0 0
BITMAP
0600
18C0
0040
E380
4100
4100
4100
4100
4100
4100
6200
3C00
ENDCHAR
STARTCHAR 1EE9
ENCODING 7913
SWIDTH 600 0
DWIDTH 9 0
BBX 9 11 0 0
BITMAP
0400
0800
1000
0180
C280
4700
4200
4200
4200
4600
3B00
ENDCHAR
STARTCHAR 1EEA
ENCODING 7914
SWIDTH 666 0
DWIDTH 10 0
BBX 10 12 0 0
BITMAP
3800
04C0
0040
E380
4100
4100
4100
4100
4100
4100
6200
3C00
ENDCHAR
STARTCHAR 1EEB
ENCODING 7915
SWIDTH 600 0
DWIDTH 9 0
BBX 9 11 0 0
BITMAP
2000
1000
0800
0180
C280
4700
4200
4200
4200
4600
3B00
ENDCHAR
STARTCHAR 1EEC
ENCODING 7916
SWIDTH 666 0
DWIDTH 10 0
BBX 10 13 0 0
BITMAP
0C00
0800
08C0
0040
E380
4100
4100
4100
4100
4100
4100
6200
3C00
ENDCHAR
STARTCHAR 1EED
ENCODING 7917
SWIDTH 600 0
DWIDTH 9 0
BBX 9 11 0 0
BITMAP
1800
2800
1000
0180
C280
4700
4200
4200
4200
4600
3B00
ENDCHAR
STARTCHAR 1EEE
ENCODING 7918
SWIDTH 666 0
DWIDTH 10 0
BBX 10 12 0 0
BITMAP
1A00
3CC0
0040
E380
4100
4100
4100
4100
4100
4100
6200
3C00
ENDCHAR
STARTCHAR 1EEF
ENCODING 7919
SWIDTH 600 0
DWIDTH 9 0
BBX 9 10 0 0
BITMAP
3400
4C00
0180
C280
4700
4200
4200
4200
4600
3B00
ENDCHAR
STARTCHAR 1EF0
ENCODING 7920
SWIDTH 666 0
DWIDTH 10 0
BBX 10 14 0 -3
BITMAP
00C0
0040
E380
4100
4100
4100
4100
4100
4100
6200
3C00
0000
0800
0800
ENDCHAR
STARTCHAR 1EF1
ENCODING 7921
SWIDTH 600 0
DWIDTH 9 0
BBX 9 11 0 -3
BITMAP
0180
C280
4700
4200
4200
4200
4600
3B00
0000
0800
1000
ENDCHAR
STARTCHAR 1EF2
ENCODING 7922
SWIDTH 600 0
DWIDTH 9 0
BBX 9 12 0 0
BITMAP
3000
0C00
0000
E380
6200
3200
1400
1C00
0800
0800
0800
1C00
ENDCHAR
STARTCHAR 1EF3
ENCODING 7923
SWIDTH 466 0
DWIDTH 7 0
BBX 7 15 0 -4
BITMAP
20
10
08
00
E6
44
24
24
28
18
10
10
10
20
C0
ENDCHAR
STARTCHAR 1EF4
ENCODING 7924
SWIDTH 600 0
DWIDTH 9 0
BBX 9 12 0 -3
BITMAP
E380
6200
3200
1400
1C00
0800
0800
0800
0800
1400
0800
0800
ENDCHAR
STARTCHAR 1EF5
ENCODING 7925
SWIDTH 466 0
DWIDTH 7 0
BBX 7 11 0 -4
BITMAP
E6
44
24
24
28
18
10
10
14
24
C0
ENDCHAR
STARTCHAR 1EF6
ENCODING 7926
SWIDTH 600 0
DWIDTH 9 0
BBX 9 13 0 0
BITMAP
0800
1800
1800
0000
E380
6200
3200
1400
1C00
0800
0800
0800
1C00
ENDCHAR
STARTCHAR 1EF7
ENCODING 7927
SWIDTH 466 0
DWIDTH 7 0
BBX 7 15 0 -4
BITMAP
18
30
10
00
E6
44
24
24
28
18
10
10
10
20
C0
ENDCHAR
STARTCHAR 1EF8
ENCODING 7928
SWIDTH 600 0
DWIDTH 9 0
BBX 9 12 0 0
BITMAP
3A00
3C00
0000
E380
6200
3200
1400
1C00
0800
0800
0800
1C00
ENDCHAR
STARTCHAR 1EF9
ENCODING 7929
SWIDTH 466 0
DWIDTH 7 0
BBX 7 14 0 -4
BITMAP
34
4C
00
E6
44
24
24
28
18
10
10
10
20
C0
ENDCHAR
STARTCHAR 2011
ENCODING 8209
SWIDTH 333 0
DWIDTH 5 0
BBX 5 1 0 3
BITMAP
F8
ENDCHAR
STARTCHAR 2013
ENCODING 8211
SWIDTH 466 0
DWIDTH 7 0
BBX 7 1 0 3
BITMAP
FE
ENDCHAR
STARTCHAR 2014
ENCODING 8212
SWIDTH 733 0
DWIDTH 11 0
BBX 11 1 0 3
BITMAP
FFE0
ENDCHAR
STARTCHAR 2018
ENCODING 8216
SWIDTH 200 0
DWIDTH 3 0
BBX 2 4 1 7
BITMAP
80
80
80
C0
ENDCHAR
STARTCHAR 2019
ENCODING 8217
SWIDTH 200 0
DWIDTH 3 0
BBX 2 4 1 7
BITMAP
40
C0
40
80
ENDCHAR
STARTCHAR 201A
ENCODING 8218
SWIDTH 200 0
DWIDTH 3 0
BBX 2 4 1 -2
BITMAP
40
C0
40
80
ENDCHAR
STARTCHAR 201C
ENCODING 8220
SWIDTH 466 0
DWIDTH 7 0
BBX 5 4 1 7
BITMAP
98
90
90
D8
ENDCHAR
STARTCHAR 201D
ENCODING 8221
SWIDTH 466 0
DWIDTH 7 0
BBX 5 4 1 7
BITMAP
88
58
48
90
ENDCHAR
STARTCHAR 201E
ENCODING 8222
SWIDTH 466 0
DWIDTH 7 0
BBX 5 4 1 -2
BITMAP
88
58
48
90
ENDCHAR
STARTCHAR 2020
ENCODING 8224
SWIDTH 466 0
DWIDTH 7 0
BBX 6 11 0 0
BITMAP
10
10
10
7C
90
10
10
10
10
10
10
ENDCHAR
STARTCHAR 2021
ENCODING 8225
SWIDTH 466 0
DWIDTH 7 0
BBX 6 11 0 0
BITMAP
10
10
10
FC
10
10
10
FC
10
10
10
ENDCHAR
STARTCHAR 2022
ENCODING 8226
SWIDTH 266 0
DWIDTH 4 0
BBX 3 3 1 3
BITMAP
C0
E0
C0
ENDCHAR
STARTCHAR 2026
ENCODING 8230
SWIDTH 666 0
DWIDTH 10 0
BBX 7 2 1 0
BITMAP
92
92
ENDCHAR
STARTCHAR 2030
ENCODING 8240
SWIDTH 1066 0
DWIDTH 16 0
BBX 14 9 1 0
BITMAP
6100
9200
9400
9800
6B18
14A4
24A4
44A4
C318
ENDCHAR
STARTCHAR 2039
ENCODING 8249
SWIDTH 333 0
DWIDTH 5 0
BBX 3 7 1 0
BITMAP
60
40
80
80
80
40
60
ENDCHAR
STARTCHAR 203A
ENCODING 8250
SWIDTH 333 0
DWIDTH 5 0
BBX 3 7 1 0
BITMAP
80
40
40
20
40
40
80
ENDCHAR
STARTCHAR 2044
ENCODING 8260
SWIDTH 600 0
DWIDTH 9 0
BBX 7 9 1 0
BITMAP
02
04
08
08
10
20
20
40
80
ENDCHAR
STARTCHAR 20AC
ENCODING 8364
SWIDTH 466 0
DWIDTH 7 0
BBX 7 9 0 0
BITMAP
1C
26
40
F8
40
F8
40
62
3C
ENDCHAR
STARTCHAR 2122
ENCODING 8482
SWIDTH 600 0
DWIDTH 9 0
BBX 8 3 0 6
BITMAP
E9
4B
4F
ENDCHAR
STARTCHAR 2126
ENCODING 8486
SWIDTH 666 0
DWIDTH 10 0
BBX 8 9 1 0
BITMAP
3C
42
81
81
81
81
82
C5
E7
ENDCHAR
STARTCHAR 2202
ENCODING 8706
SWIDTH 533 0
DWIDTH 8 0
BBX 6 11 1 0
BITMAP
78
88
04
04
34
CC
84
84
84
C8
70
ENDCHAR
STARTCHAR 2205
ENCODING 8709
SWIDTH 666 0
DWIDTH 10 0
BBX 8 11 1 -1
BITMAP
01
3E
42
85
89
91
A1
A1
42
7C
80
ENDCHAR
STARTCHAR 2206
ENCODING 8710
SWIDTH 600 0
DWIDTH 9 0
BBX 8 9 0 0
BITMAP
08
18
18
24
24
22
42
43
FF
ENDCHAR
STARTCHAR 220F
ENCODING 8719
SWIDTH 600 0
DWIDTH 9 0
BBX 8 9 0 0
BITMAP
FF
42
42
42
42
42
42
42
E7
ENDCHAR
STARTCHAR 2211
ENCODING 8721
SWIDTH 533 0
DWIDTH 8 0
BBX 7 9 0 0
BITMAP
7E
62
20
10
08
10
22
42
FE
ENDCHAR
STARTCHAR 2212
ENCODING 8722
SWIDTH 400 0
DWIDTH 6 0
BBX 6 1 0 4
BITMAP
FC
ENDCHAR
STARTCHAR 2219
ENCODING 8729
SWIDTH 133 0
DWIDTH 2 0
BBX 1 2 1 4
BITMAP
80
80
ENDCHAR
STARTCHAR 221A
ENCODING 8730
SWIDTH 600 0
DWIDTH 9 0
BBX 9 11 0 0
BITMAP
0180
0100
0200
0200
C200
2200
2400
1400
1400
0800
0800
ENDCHAR
STARTCHAR 221E
ENCODING 8734
SWIDTH 666 0
DWIDTH 10 0
BBX 8 4 1 2
BITMAP
67
99
99
EE
ENDCHAR
STARTCHAR 222B
ENCODING 8747
SWIDTH 266 0
DWIDTH 4 0
BBX 7 15 -2 -4
BITMAP
0C
16
10
10
10
10
10
10
10
10
10
10
10
10
E0
ENDCHAR
STARTCHAR 2248
ENCODING 8776
SWIDTH 466 0
DWIDTH 7 0
BBX 6 4 0 2
BITMAP
64
9C
64
9C
ENDCHAR
STARTCHAR 2260
ENCODING 8800
SWIDTH 466 0
DWIDTH 7 0
BBX 6 6 0 1
BITMAP
0C
7C
90
7C
E0
40
ENDCHAR
STARTCHAR 2264
ENCODING 8804
SWIDTH 466 0
DWIDTH 7 0
BBX 6 6 0 1
BITMAP
04
38
C0
38
04
FC
ENDCHAR
STARTCHAR 2265
ENCODING 8805
SWIDTH 466 0
DWIDTH 7 0
BBX 6 6 0 1
BITMAP
C0
38
0C
30
C0
FC
ENDCHAR
STARTCHAR 25CA
ENCODING 9674
SWIDTH 333 0
DWIDTH 5 0
BBX 5 9 0 0
BITMAP
20
30
50
98
88
D0
50
60
20
ENDCHAR
STARTCHAR 25CC
ENCODING 9676
SWIDTH 533 0
DWIDTH 8 0
BBX 7 7 1 0
BITMAP
68
44
82
84
82
44
68
ENDCHAR
STARTCHAR 2C60
ENCODING 11360
SWIDTH 466 0
DWIDTH 7 0
BBX 6 9 1 0
BITMAP
E0
40
40
F0
40
F0
40
44
FC
ENDCHAR
STARTCHAR 2C61
ENCODING 11361
SWIDTH 333 0
DWIDTH 5 0
BBX 3 11 1 0
BITMAP
C0
40
40
40
E0
E0
40
40
40
40
E0
ENDCHAR
STARTCHAR 2C62
ENCODING 11362
SWIDTH 466 0
DWIDTH 7 0
BBX 7 9 0 0
BITMAP
70
20
20
68
B0
20
20
22
7E
ENDCHAR
STARTCHAR A789
ENCODING 42889
SWIDTH 200 0
DWIDTH 3 0
BBX 1 5 1 1
BITMAP
80
80
00
80
80
ENDCHAR
STARTCHAR A78A
ENCODING 42890
SWIDTH 333 0
DWIDTH 5 0
BBX 5 3 0 2
BITMAP
78
80
F8
ENDCHAR
STARTCHAR A78B
ENCODING 42891
SWIDTH 266 0
DWIDTH 4 0
BBX 2 7 1 5
BITMAP
C0
C0
80
80
80
80
80
ENDCHAR
STARTCHAR A78C
ENCODING 42892
SWIDTH 266 0
DWIDTH 4 0
BBX 2 6 1 5
BITMAP
C0
C0
80
80
80
80
ENDCHAR
STARTCHAR F130
ENCODING 61744
SWIDTH 133 0
DWIDTH 2 0
BBX 2 2 0 -2
BITMAP
C0
40
ENDCHAR
STARTCHAR F131
ENCODING 61745
SWIDTH 133 0
DWIDTH 2 0
BBX 2 2 0 -2
BITMAP
C0
80
ENDCHAR
STARTCHAR F195
ENCODING 61845
SWIDTH 200 0
DWIDTH 3 0
BBX 3 3 0 8
BITMAP
C0
40
20
ENDCHAR
STARTCHAR F197
ENCODING 61847
SWIDTH 200 0
DWIDTH 3 0
BBX 3 3 0 8
BITMAP
60
40
80
ENDCHAR
STARTCHAR F1C8
ENCODING 61896
SWIDTH 333 0
DWIDTH 5 0
BBX 4 6 0 6
BITMAP
70
90
10
20
20
20
ENDCHAR
STARTCHAR F1E9
ENCODING 61929
SWIDTH 200 0
DWIDTH 3 0
BBX 1 5 1 1
BITMAP
80
80
00
80
80
ENDCHAR
STARTCHAR F1EA
ENCODING 61930
SWIDTH 333 0
DWIDTH 5 0
BBX 5 3 0 2
BITMAP
78
80
F8
ENDCHAR
STARTCHAR F20E
ENCODING 61966
SWIDTH 333 0
DWIDTH 5 0
BBX 3 11 1 0
BITMAP
C0
40
40
40
E0
E0
40
40
40
40
E0
ENDCHAR
STARTCHAR F20F
ENCODING 61967
SWIDTH 466 0
DWIDTH 7 0
BBX 6 9 1 0
BITMAP
E0
40
40
F0
40
F0
40
44
FC
ENDCHAR
STARTCHAR F211
ENCODING 61969
SWIDTH 466 0
DWIDTH 7 0
BBX 8 11 1 -4
BITMAP
3C
44
84
84
84
CC
74
04
04
05
06
ENDCHAR
STARTCHAR F212
ENCODING 61970
SWIDTH 533 0
DWIDTH 8 0
BBX 9 13 1 -4
BITMAP
1E00
6200
8200
8200
8200
8200
8200
4600
3A00
0200
0200
0280
0300
ENDCHAR
STARTCHAR F218
ENCODING 61976
SWIDTH 666 0
DWIDTH 10 0
BBX 9 9 0 0
BITMAP
E380
4100
4100
4100
FF80
4100
4100
6300
3E00
ENDCHAR
STARTCHAR F219
ENCODING 61977
SWIDTH 666 0
DWIDTH 10 0
BBX 9 9 0 0
BITMAP
0800
0C00
1400
1600
1200
2200
2100
4100
E380
ENDCHAR
STARTCHAR F21D
ENCODING 61981
SWIDTH 266 0
DWIDTH 4 0
BBX 2 6 1 5
BITMAP
C0
C0
80
80
80
80
ENDCHAR
STARTCHAR F21E
ENCODING 61982
SWIDTH 400 0
DWIDTH 6 0
BBX 4 7 1 0
BITMAP
70
90
90
20
40
40
E0
ENDCHAR
STARTCHAR F21F
ENCODING 61983
SWIDTH 466 0
DWIDTH 7 0
BBX 6 9 1 0
BITMAP
E0
40
40
40
F0
40
40
44
FC
ENDCHAR
STARTCHAR F242
ENCODING 62018
SWIDTH 466 0
DWIDTH 7 0
BBX 7 9 0 0
BITMAP
70
20
20
68
B0
20
20
22
7E
ENDCHAR
STARTCHAR F26A
ENCODING 62058
SWIDTH 266 0
DWIDTH 4 0
BBX 2 7 1 5
BITMAP
C0
C0
80
80
80
80
80
ENDCHAR
STARTCHAR FB01
ENCODING 64257
SWIDTH 600 0
DWIDTH 9 0
BBX 8 11 1 0
BITMAP
18
6E
46
40
F6
42
42
42
42
42
F7
ENDCHAR
STARTCHAR FB02
ENCODING 64258
SWIDTH 600 0
DWIDTH 9 0
BBX 9 11 0 0
BITMAP
1F00
2500
4100
4100
F100
4100
4100
4100
4100
4100
F380
ENDCHAR
ENDFONT
